M48
;DRILL file {KiCad (2015-07-11 BZR 5925, Git c291b88)-product} date 17.07.2015 1:43:56
;FORMAT={-:-/ absolute / metric / decimal}
FMAT,2
METRIC,TZ
T1C0.300
T2C0.400
T3C0.500
T4C0.800
T5C0.813
T6C0.900
T7C1.200
T8C1.400
T9C2.200
T10C2.700
T11C3.500
%
G90
G05
M71
T1
X74.9Y-80.8
X77.699Y-77.846
X81.397Y-105.256
X83.273Y-75.256
X84.23Y-76.827
X84.485Y-32.013
X91.67Y-98.827
X94.185Y-32.1
X95.781Y-98.193
X103.223Y-39.455
X105.812Y-59.061
X111.143Y-74.073
X112.55Y-95.625
X112.61Y-70.722
X113.421Y-79.126
X113.635Y-78.035
X113.71Y-70.765
X113.73Y-71.865
X113.93Y-100.389
X114.102Y-84.55
X114.83Y-101.037
X115.044Y-91.732
X115.362Y-89.013
X116.495Y-101.576
X116.528Y-82.015
X116.645Y-88.691
X116.65Y-80.406
X116.727Y-84.315
X117.123Y-91.382
X117.955Y-69.25
X118.19Y-77.111
X118.216Y-100.658
X118.282Y-33.877
X118.82Y-80.265
X119.582Y-75.036
X119.805Y-67.928
X120.343Y-66.968
X120.69Y-74.936
X120.783Y-48.912
X120.897Y-50.014
X121.461Y-47.462
X121.975Y-82.311
X122.468Y-50.368
X122.843Y-42.48
X122.862Y-60.487
X123.013Y-47.011
X123.82Y-61.141
X123.837Y-68.955
X123.964Y-51.182
X124.046Y-64.007
X124.29Y-67.6
X124.306Y-66.581
X124.81Y-65.69
X125.578Y-62.396
X125.61Y-78.255
X125.625Y-63.748
X125.905Y-71.436
X125.922Y-54.109
X126.095Y-74.454
X126.644Y-78.631
X126.898Y-69.44
X126.926Y-64.689
X127.144Y-62.482
X127.848Y-65.289
X127.961Y-63.452
X128.432Y-83.336
X128.738Y-58.424
X128.832Y-66.552
X129.004Y-59.567
X129.36Y-67.517
X129.56Y-70.313
X129.712Y-76.086
X130.106Y-71.263
X130.413Y-78.427
X131.767Y-59.994
X131.788Y-65.58
X132.673Y-66.934
X132.861Y-65.337
X132.869Y-63.353
X132.927Y-58.839
X132.935Y-98.344
X133.588Y-97.458
X133.645Y-89.366
X134.677Y-73.85
X134.933Y-85.499
X134.984Y-82.025
X135.363Y-65.919
X135.386Y-64.816
X135.393Y-83.438
X135.412Y-75.192
X135.651Y-76.839
X135.709Y-61.24
X136.276Y-100.937
X136.339Y-39.285
X136.649Y-89.421
X137.117Y-100.338
X137.312Y-87.891
X137.585Y-90.753
X137.871Y-101.146
X138.373Y-80.806
X138.957Y-87.897
X139.375Y-89.638
X139.413Y-86.896
X139.711Y-101.092
X139.988Y-60.575
X140.396Y-41.823
X141.482Y-100.37
X142.152Y-81.535
X143.874Y-89.483
X143.939Y-82.565
T2
X69.4Y-90.4
X73.2Y-96.8
X73.8Y-90.8
X74.743Y-85.055
X75.6Y-100.2
X77.Y-91.4
X77.2Y-114.
X77.6Y-70.4
X77.6Y-96.8
X77.651Y-83.505
X77.75Y-81.407
X77.8Y-54.2
X78.4Y-88.2
X78.6Y-34.4
X79.Y-79.
X79.4Y-42.
X79.8Y-50.8
X81.2Y-91.
X81.572Y-77.568
X81.6Y-81.2
X81.8Y-47.4
X82.Y-85.4
X82.2Y-36.4
X82.4Y-56.6
X82.4Y-67.2
X82.4Y-70.4
X82.6Y-114.
X83.2Y-33.8
X83.2Y-52.2
X85.2Y-79.8
X85.4Y-43.8
X85.4Y-63.2
X85.6Y-90.6
X85.8Y-30.2
X86.8Y-72.2
X87.2Y-75.4
X87.2Y-83.8
X87.2Y-114.2
X88.Y-65.
X88.6Y-52.2
X88.8Y-79.8
X88.8Y-88.2
X89.6Y-90.8
X89.69Y-99.076
X90.8Y-43.8
X90.8Y-62.4
X91.Y-75.6
X91.8Y-94.6
X91.8Y-114.
X92.425Y-65.438
X92.727Y-46.91
X93.Y-79.4
X94.Y-69.2
X94.Y-83.
X94.2Y-72.6
X94.4Y-47.8
X94.6Y-75.8
X94.6Y-114.2
X94.675Y-57.231
X94.783Y-51.555
X95.3Y-85.068
X95.6Y-30.2
X95.65Y-90.323
X96.4Y-42.6
X96.508Y-32.45
X96.6Y-60.8
X96.774Y-98.773
X96.8Y-65.
X97.2Y-50.6
X97.2Y-68.2
X97.2Y-94.
X97.8Y-79.4
X97.879Y-45.02
X98.4Y-89.
X98.641Y-86.576
X99.Y-84.6
X99.2Y-56.
X99.402Y-33.292
X99.8Y-114.
X99.957Y-52.949
X100.Y-69.4
X100.Y-73.
X100.Y-76.
X100.4Y-65.
X100.6Y-86.6
X101.Y-41.6
X101.Y-45.4
X101.Y-60.2
X101.4Y-48.
X102.425Y-51.562
X103.087Y-46.31
X103.6Y-68.4
X103.6Y-89.
X103.8Y-62.4
X103.8Y-65.
X103.8Y-79.4
X104.Y-114.
X104.2Y-101.8
X104.8Y-56.4
X105.Y-73.
X105.8Y-43.
X105.8Y-75.4
X106.6Y-36.6
X106.73Y-79.104
X106.8Y-91.2
X106.8Y-106.
X107.Y-53.
X107.2Y-69.2
X107.6Y-76.8
X108.2Y-83.8
X108.4Y-100.2
X108.4Y-114.4
X108.8Y-41.
X108.8Y-89.4
X109.2Y-46.4
X109.8Y-33.
X109.8Y-64.4
X109.8Y-92.4
X110.4Y-106.2
X110.847Y-96.732
X111.Y-55.2
X112.Y-82.
X112.285Y-75.609
X112.8Y-40.4
X112.859Y-100.793
X113.Y-50.2
X113.27Y-91.229
X113.4Y-113.8
X113.636Y-61.955
X113.7Y-95.1
X113.7Y-96.
X113.7Y-96.9
X114.2Y-59.2
X114.6Y-95.1
X114.6Y-96.
X114.6Y-96.9
X115.4Y-33.4
X115.5Y-95.1
X115.5Y-96.
X115.5Y-96.9
X115.595Y-102.307
X115.773Y-72.713
X115.809Y-100.442
X115.925Y-75.119
X116.Y-53.
X116.4Y-95.1
X116.4Y-96.
X116.4Y-96.9
X116.8Y-39.
X117.263Y-59.785
X117.3Y-95.1
X117.3Y-96.
X117.3Y-96.9
X117.513Y-62.095
X117.764Y-64.241
X118.2Y-95.1
X118.2Y-96.
X118.2Y-96.9
X118.424Y-53.559
X119.1Y-95.1
X119.1Y-96.
X119.1Y-96.9
X119.2Y-114.2
X119.362Y-100.468
X119.768Y-91.495
X120.2Y-39.
X120.762Y-71.612
X120.778Y-59.303
X120.851Y-69.875
X121.Y-80.8
X121.857Y-92.152
X122.2Y-76.8
X122.392Y-95.814
X122.583Y-101.733
X122.6Y-33.8
X122.7Y-85.688
X123.019Y-91.253
X123.6Y-114.2
X123.642Y-89.009
X124.097Y-74.09
X124.4Y-106.4
X124.454Y-75.241
X124.461Y-76.51
X125.Y-42.2
X125.008Y-91.259
X125.4Y-102.2
X125.6Y-45.8
X126.Y-30.4
X126.Y-85.4
X126.4Y-82.2
X126.8Y-89.
X128.4Y-105.6
X128.4Y-114.
X128.6Y-51.4
X129.2Y-87.2
X129.4Y-40.4
X129.4Y-82.2
X129.6Y-100.
X129.8Y-58.4
X130.2Y-74.4
X130.6Y-47.4
X130.659Y-76.79
X131.6Y-64.
X131.8Y-92.6
X132.94Y-72.963
X133.2Y-113.8
X133.274Y-103.8
X133.4Y-34.8
X133.8Y-51.2
X133.8Y-55.
X134.094Y-79.117
X134.6Y-40.6
X135.262Y-100.465
X135.6Y-31.4
X136.025Y-91.251
X136.2Y-71.8
X136.26Y-79.196
X136.6Y-50.
X136.7Y-95.1
X136.7Y-96.
X136.7Y-96.9
X136.8Y-82.2
X137.162Y-61.002
X137.4Y-56.4
X137.6Y-95.1
X137.6Y-96.
X137.6Y-96.9
X137.751Y-64.883
X138.4Y-43.6
X138.4Y-75.
X138.5Y-95.1
X138.5Y-96.
X138.5Y-96.9
X138.77Y-100.426
X138.8Y-113.6
X139.Y-84.4
X139.2Y-58.8
X139.4Y-95.1
X139.4Y-96.
X139.4Y-96.9
X140.Y-49.4
X140.3Y-95.1
X140.3Y-96.
X140.3Y-96.9
X140.6Y-63.
X140.8Y-45.8
X141.2Y-95.1
X141.2Y-96.
X141.2Y-96.9
X141.6Y-60.8
X141.655Y-90.51
X141.8Y-70.8
X142.099Y-91.572
X142.1Y-95.1
X142.1Y-96.
X142.1Y-96.9
X142.4Y-55.6
X142.633Y-100.445
X142.8Y-77.8
X143.309Y-91.563
X144.1Y-95.03
X144.2Y-113.6
X144.8Y-64.4
X145.Y-72.8
X145.4Y-58.
X145.6Y-61.2
X145.8Y-47.6
X145.8Y-54.2
X146.Y-43.4
X146.6Y-65.8
X146.6Y-91.
X146.6Y-105.6
X146.7Y-84.05
X146.8Y-82.
X147.Y-70.6
X147.Y-99.6
X147.6Y-76.6
X149.Y-103.2
X150.2Y-68.8
X150.4Y-43.2
X150.6Y-37.8
X150.6Y-47.2
X150.8Y-86.6
X151.Y-78.8
X152.8Y-101.8
X153.2Y-107.2
T3
X97.9Y-101.8
X97.9Y-102.9
X97.9Y-104.
X97.9Y-105.1
X97.9Y-106.2
X99.Y-101.8
X99.Y-102.9
X99.Y-104.
X99.Y-105.1
X99.Y-106.2
X100.1Y-101.8
X100.1Y-102.9
X100.1Y-104.
X100.1Y-105.1
X100.1Y-106.2
T4
X84.Y-81.5
X84.Y-86.5
X85.7Y-36.
X85.7Y-38.
X85.7Y-40.
X85.7Y-56.
X85.7Y-58.
X85.7Y-60.
X90.3Y-36.
X90.3Y-38.
X90.3Y-40.
X90.3Y-56.
X90.3Y-58.
X90.3Y-60.
X109.Y-81.5
X109.Y-86.5
X133.Y-81.5
X133.Y-86.5
T5
X76.73Y-31.
X79.27Y-31.
X86.Y-46.73
X86.Y-49.27
X86.Y-66.73
X86.Y-69.27
X87.73Y-31.
X90.Y-46.73
X90.Y-49.27
X90.Y-66.73
X90.Y-69.27
X90.27Y-31.
X98.73Y-31.
X101.27Y-31.
X111.73Y-31.
X114.27Y-31.
X131.Y-29.73
X131.Y-32.27
X140.Y-29.73
X140.Y-32.27
X144.Y-29.73
X144.Y-32.27
T6
X126.38Y-37.4
X128.92Y-37.4
X131.46Y-37.4
X134.Y-37.4
X137.92Y-37.4
X140.46Y-37.4
X143.Y-37.4
X143.Y-41.46
X143.Y-44.
X143.Y-48.46
X143.Y-51.
X148.4Y-41.6
X149.Y-56.46
X149.Y-59.
X149.Y-62.46
X149.Y-65.
X152.4Y-41.6
X153.Y-55.84
X153.Y-58.38
X153.Y-60.92
X153.Y-63.46
X153.Y-66.
X153.Y-71.46
X153.Y-74.
T7
X71.5Y-39.5
X71.5Y-44.5
X71.5Y-59.5
X71.5Y-64.5
X75.Y-94.
X76.5Y-39.5
X76.5Y-44.5
X76.5Y-59.5
X76.5Y-64.5
X79.Y-94.
X83.Y-94.
T8
X82.46Y-110.
X87.54Y-110.
X95.46Y-110.
X100.54Y-110.
X107.38Y-110.
X112.46Y-110.
X117.54Y-110.
X122.62Y-110.
X129.38Y-110.
X134.46Y-110.
X139.54Y-110.
X144.62Y-110.
T9
X70.75Y-94.
X87.25Y-94.
T10
X72.Y-103.
X76.5Y-107.5
X79.Y-103.
T11
X72.Y-32.
X72.Y-52.
X72.Y-72.
X72.Y-112.
X105.Y-96.
X127.9Y-96.
X150.9Y-96.
X151.Y-32.
X151.Y-112.
T0
M30
