G04 #@! TF.FileFunction,Legend,Bot*
%FSLAX46Y46*%
G04 Gerber Fmt 4.6, Leading zero omitted, Abs format (unit mm)*
G04 Created by KiCad (PCBNEW (2015-07-11 BZR 5925, Git c291b88)-product) date 17.07.2015 1:56:37*
%MOMM*%
G01*
G04 APERTURE LIST*
%ADD10C,0.150000*%
%ADD11C,0.200660*%
G04 APERTURE END LIST*
D10*
X117000000Y-100100000D02*
X117800000Y-100100000D01*
X117800000Y-100100000D02*
X117800000Y-97100000D01*
X117800000Y-97100000D02*
X116200000Y-97100000D01*
X116200000Y-97100000D02*
X116200000Y-100100000D01*
X116200000Y-100100000D02*
X117000000Y-100100000D01*
X118800000Y-91900000D02*
X118000000Y-91900000D01*
X118000000Y-91900000D02*
X118000000Y-94900000D01*
X118000000Y-94900000D02*
X119600000Y-94900000D01*
X119600000Y-94900000D02*
X119600000Y-91900000D01*
X119600000Y-91900000D02*
X118800000Y-91900000D01*
X140000000Y-100100000D02*
X140800000Y-100100000D01*
X140800000Y-100100000D02*
X140800000Y-97100000D01*
X140800000Y-97100000D02*
X139200000Y-97100000D01*
X139200000Y-97100000D02*
X139200000Y-100100000D01*
X139200000Y-100100000D02*
X140000000Y-100100000D01*
X141400000Y-91900000D02*
X140600000Y-91900000D01*
X140600000Y-91900000D02*
X140600000Y-94900000D01*
X140600000Y-94900000D02*
X142200000Y-94900000D01*
X142200000Y-94900000D02*
X142200000Y-91900000D01*
X142200000Y-91900000D02*
X141400000Y-91900000D01*
X116200000Y-100100000D02*
X116200000Y-96300000D01*
X116200000Y-96300000D02*
X114200000Y-96300000D01*
X114200000Y-96300000D02*
X114200000Y-100100000D01*
X114200000Y-100100000D02*
X116200000Y-100100000D01*
X116000000Y-91900000D02*
X116000000Y-95700000D01*
X116000000Y-95700000D02*
X118000000Y-95700000D01*
X118000000Y-95700000D02*
X118000000Y-91900000D01*
X118000000Y-91900000D02*
X116000000Y-91900000D01*
X139200000Y-100100000D02*
X139200000Y-96300000D01*
X139200000Y-96300000D02*
X137200000Y-96300000D01*
X137200000Y-96300000D02*
X137200000Y-100100000D01*
X137200000Y-100100000D02*
X139200000Y-100100000D01*
X138600000Y-91900000D02*
X138600000Y-95700000D01*
X138600000Y-95700000D02*
X140600000Y-95700000D01*
X140600000Y-95700000D02*
X140600000Y-91900000D01*
X140600000Y-91900000D02*
X138600000Y-91900000D01*
X121400000Y-103100000D02*
X122200000Y-103100000D01*
X122200000Y-103100000D02*
X122200000Y-100100000D01*
X122200000Y-100100000D02*
X120600000Y-100100000D01*
X120600000Y-100100000D02*
X120600000Y-103100000D01*
X120600000Y-103100000D02*
X121400000Y-103100000D01*
X116800000Y-105300000D02*
X117600000Y-105300000D01*
X117600000Y-105300000D02*
X117600000Y-102300000D01*
X117600000Y-102300000D02*
X116000000Y-102300000D01*
X116000000Y-102300000D02*
X116000000Y-105300000D01*
X116000000Y-105300000D02*
X116800000Y-105300000D01*
X144200000Y-103100000D02*
X145000000Y-103100000D01*
X145000000Y-103100000D02*
X145000000Y-100100000D01*
X145000000Y-100100000D02*
X143400000Y-100100000D01*
X143400000Y-100100000D02*
X143400000Y-103100000D01*
X143400000Y-103100000D02*
X144200000Y-103100000D01*
X139200000Y-105300000D02*
X140000000Y-105300000D01*
X140000000Y-105300000D02*
X140000000Y-102300000D01*
X140000000Y-102300000D02*
X138400000Y-102300000D01*
X138400000Y-102300000D02*
X138400000Y-105300000D01*
X138400000Y-105300000D02*
X139200000Y-105300000D01*
X113400000Y-91900000D02*
X112600000Y-91900000D01*
X112600000Y-91900000D02*
X112600000Y-94900000D01*
X112600000Y-94900000D02*
X114200000Y-94900000D01*
X114200000Y-94900000D02*
X114200000Y-91900000D01*
X114200000Y-91900000D02*
X113400000Y-91900000D01*
X142400000Y-100100000D02*
X143200000Y-100100000D01*
X143200000Y-100100000D02*
X143200000Y-97100000D01*
X143200000Y-97100000D02*
X141600000Y-97100000D01*
X141600000Y-97100000D02*
X141600000Y-100100000D01*
X141600000Y-100100000D02*
X142400000Y-100100000D01*
X112800000Y-100100000D02*
X113600000Y-100100000D01*
X113600000Y-100100000D02*
X113600000Y-97100000D01*
X113600000Y-97100000D02*
X112000000Y-97100000D01*
X112000000Y-97100000D02*
X112000000Y-100100000D01*
X112000000Y-100100000D02*
X112800000Y-100100000D01*
X135800000Y-100100000D02*
X136600000Y-100100000D01*
X136600000Y-100100000D02*
X136600000Y-97100000D01*
X136600000Y-97100000D02*
X135000000Y-97100000D01*
X135000000Y-97100000D02*
X135000000Y-100100000D01*
X135000000Y-100100000D02*
X135800000Y-100100000D01*
X119400000Y-100100000D02*
X120200000Y-100100000D01*
X120200000Y-100100000D02*
X120200000Y-97100000D01*
X120200000Y-97100000D02*
X118600000Y-97100000D01*
X118600000Y-97100000D02*
X118600000Y-100100000D01*
X118600000Y-100100000D02*
X119400000Y-100100000D01*
X143000000Y-91900000D02*
X142200000Y-91900000D01*
X142200000Y-91900000D02*
X142200000Y-94900000D01*
X142200000Y-94900000D02*
X143800000Y-94900000D01*
X143800000Y-94900000D02*
X143800000Y-91900000D01*
X143800000Y-91900000D02*
X143000000Y-91900000D01*
X120400000Y-91900000D02*
X119600000Y-91900000D01*
X119600000Y-91900000D02*
X119600000Y-94900000D01*
X119600000Y-94900000D02*
X121200000Y-94900000D01*
X121200000Y-94900000D02*
X121200000Y-91900000D01*
X121200000Y-91900000D02*
X120400000Y-91900000D01*
X136400000Y-91900000D02*
X135600000Y-91900000D01*
X135600000Y-91900000D02*
X135600000Y-94900000D01*
X135600000Y-94900000D02*
X137200000Y-94900000D01*
X137200000Y-94900000D02*
X137200000Y-91900000D01*
X137200000Y-91900000D02*
X136400000Y-91900000D01*
X118400000Y-102300000D02*
X118400000Y-107700000D01*
X118400000Y-107700000D02*
X120400000Y-107700000D01*
X120400000Y-107700000D02*
X120400000Y-102300000D01*
X120400000Y-102300000D02*
X118400000Y-102300000D01*
D11*
X119400000Y-104601220D02*
X118800560Y-105398780D01*
X118800560Y-105398780D02*
X119999440Y-105398780D01*
X119999440Y-105398780D02*
X119400000Y-104601220D01*
X118800560Y-104601220D02*
X119999440Y-104601220D01*
D10*
X141200000Y-102300000D02*
X141200000Y-107700000D01*
X141200000Y-107700000D02*
X143200000Y-107700000D01*
X143200000Y-107700000D02*
X143200000Y-102300000D01*
X143200000Y-102300000D02*
X141200000Y-102300000D01*
D11*
X142200000Y-104601220D02*
X141600560Y-105398780D01*
X141600560Y-105398780D02*
X142799440Y-105398780D01*
X142799440Y-105398780D02*
X142200000Y-104601220D01*
X141600560Y-104601220D02*
X142799440Y-104601220D01*
D10*
X118100000Y-105600000D02*
X112700000Y-105600000D01*
X112700000Y-105600000D02*
X112700000Y-107600000D01*
X112700000Y-107600000D02*
X118100000Y-107600000D01*
X118100000Y-107600000D02*
X118100000Y-105600000D01*
D11*
X115798780Y-106600000D02*
X115001220Y-106000560D01*
X115001220Y-106000560D02*
X115001220Y-107199440D01*
X115001220Y-107199440D02*
X115798780Y-106600000D01*
X115798780Y-106000560D02*
X115798780Y-107199440D01*
D10*
X140900000Y-105600000D02*
X135500000Y-105600000D01*
X135500000Y-105600000D02*
X135500000Y-107600000D01*
X135500000Y-107600000D02*
X140900000Y-107600000D01*
X140900000Y-107600000D02*
X140900000Y-105600000D01*
D11*
X138598780Y-106600000D02*
X137801220Y-106000560D01*
X137801220Y-106000560D02*
X137801220Y-107199440D01*
X137801220Y-107199440D02*
X138598780Y-106600000D01*
X138598780Y-106000560D02*
X138598780Y-107199440D01*
D10*
X114400000Y-105300000D02*
X115200000Y-105300000D01*
X115200000Y-105300000D02*
X115200000Y-102300000D01*
X115200000Y-102300000D02*
X113600000Y-102300000D01*
X113600000Y-102300000D02*
X113600000Y-105300000D01*
X113600000Y-105300000D02*
X114400000Y-105300000D01*
X112800000Y-102300000D02*
X112000000Y-102300000D01*
X112000000Y-102300000D02*
X112000000Y-105300000D01*
X112000000Y-105300000D02*
X113600000Y-105300000D01*
X113600000Y-105300000D02*
X113600000Y-102300000D01*
X113600000Y-102300000D02*
X112800000Y-102300000D01*
X137200000Y-105300000D02*
X138000000Y-105300000D01*
X138000000Y-105300000D02*
X138000000Y-102300000D01*
X138000000Y-102300000D02*
X136400000Y-102300000D01*
X136400000Y-102300000D02*
X136400000Y-105300000D01*
X136400000Y-105300000D02*
X137200000Y-105300000D01*
X135600000Y-102300000D02*
X134800000Y-102300000D01*
X134800000Y-102300000D02*
X134800000Y-105300000D01*
X134800000Y-105300000D02*
X136400000Y-105300000D01*
X136400000Y-105300000D02*
X136400000Y-102300000D01*
X136400000Y-102300000D02*
X135600000Y-102300000D01*
X144397000Y-38670000D02*
X144270000Y-38670000D01*
X144524000Y-36130000D02*
X144397000Y-36130000D01*
X144270000Y-36130000D02*
X136650000Y-36130000D01*
X136650000Y-38670000D02*
X144270000Y-38670000D01*
X136650000Y-38670000D02*
X136650000Y-36130000D01*
X144524000Y-36130000D02*
X144524000Y-38670000D01*
X144524000Y-38670000D02*
X144397000Y-38670000D01*
X144397000Y-38670000D02*
X144397000Y-36130000D01*
X144397000Y-36130000D02*
X144270000Y-36130000D01*
X144270000Y-36130000D02*
X144270000Y-38670000D01*
X135524000Y-38670000D02*
X125110000Y-38670000D01*
X125110000Y-38670000D02*
X125110000Y-36130000D01*
X125110000Y-36130000D02*
X135524000Y-36130000D01*
X135524000Y-36130000D02*
X135524000Y-38670000D01*
X135524000Y-38670000D02*
X135397000Y-38670000D01*
X135397000Y-38670000D02*
X135397000Y-36130000D01*
X135397000Y-36130000D02*
X135270000Y-36130000D01*
X135270000Y-36130000D02*
X135270000Y-38670000D01*
X151730000Y-75524000D02*
X151730000Y-70190000D01*
X151730000Y-70190000D02*
X154270000Y-70190000D01*
X154270000Y-70190000D02*
X154270000Y-75524000D01*
X154270000Y-75524000D02*
X151730000Y-75524000D01*
X151730000Y-75524000D02*
X151730000Y-75397000D01*
X151730000Y-75397000D02*
X154270000Y-75397000D01*
X154270000Y-75397000D02*
X154270000Y-75270000D01*
X154270000Y-75270000D02*
X151730000Y-75270000D01*
X141730000Y-45524000D02*
X141730000Y-40190000D01*
X141730000Y-40190000D02*
X144270000Y-40190000D01*
X144270000Y-40190000D02*
X144270000Y-45524000D01*
X144270000Y-45524000D02*
X141730000Y-45524000D01*
X141730000Y-45524000D02*
X141730000Y-45397000D01*
X141730000Y-45397000D02*
X144270000Y-45397000D01*
X144270000Y-45397000D02*
X144270000Y-45270000D01*
X144270000Y-45270000D02*
X141730000Y-45270000D01*
X141730000Y-52524000D02*
X141730000Y-47190000D01*
X141730000Y-47190000D02*
X144270000Y-47190000D01*
X144270000Y-47190000D02*
X144270000Y-52524000D01*
X144270000Y-52524000D02*
X141730000Y-52524000D01*
X141730000Y-52524000D02*
X141730000Y-52397000D01*
X141730000Y-52397000D02*
X144270000Y-52397000D01*
X144270000Y-52397000D02*
X144270000Y-52270000D01*
X144270000Y-52270000D02*
X141730000Y-52270000D01*
X147730000Y-60524000D02*
X147730000Y-55190000D01*
X147730000Y-55190000D02*
X150270000Y-55190000D01*
X150270000Y-55190000D02*
X150270000Y-60524000D01*
X150270000Y-60524000D02*
X147730000Y-60524000D01*
X147730000Y-60524000D02*
X147730000Y-60397000D01*
X147730000Y-60397000D02*
X150270000Y-60397000D01*
X150270000Y-60397000D02*
X150270000Y-60270000D01*
X150270000Y-60270000D02*
X147730000Y-60270000D01*
X147730000Y-66524000D02*
X147730000Y-61190000D01*
X147730000Y-61190000D02*
X150270000Y-61190000D01*
X150270000Y-61190000D02*
X150270000Y-66524000D01*
X150270000Y-66524000D02*
X147730000Y-66524000D01*
X147730000Y-66524000D02*
X147730000Y-66397000D01*
X147730000Y-66397000D02*
X150270000Y-66397000D01*
X150270000Y-66397000D02*
X150270000Y-66270000D01*
X150270000Y-66270000D02*
X147730000Y-66270000D01*
X154270000Y-57110000D02*
X154270000Y-54570000D01*
X154270000Y-54570000D02*
X151730000Y-54570000D01*
X151730000Y-54570000D02*
X151730000Y-57110000D01*
X151730000Y-67524000D02*
X151730000Y-57110000D01*
X154270000Y-57110000D02*
X154270000Y-67524000D01*
X154270000Y-67524000D02*
X151730000Y-67524000D01*
X151730000Y-67524000D02*
X151730000Y-67397000D01*
X151730000Y-67397000D02*
X154270000Y-67397000D01*
X154270000Y-67397000D02*
X154270000Y-67270000D01*
X154270000Y-67270000D02*
X151730000Y-67270000D01*
X118214286Y-98414285D02*
X118242857Y-98385714D01*
X118271429Y-98300000D01*
X118271429Y-98242857D01*
X118242857Y-98157142D01*
X118185714Y-98100000D01*
X118128571Y-98071428D01*
X118014286Y-98042857D01*
X117928571Y-98042857D01*
X117814286Y-98071428D01*
X117757143Y-98100000D01*
X117700000Y-98157142D01*
X117671429Y-98242857D01*
X117671429Y-98300000D01*
X117700000Y-98385714D01*
X117728571Y-98414285D01*
X117728571Y-98642857D02*
X117700000Y-98671428D01*
X117671429Y-98728571D01*
X117671429Y-98871428D01*
X117700000Y-98928571D01*
X117728571Y-98957142D01*
X117785714Y-98985714D01*
X117842857Y-98985714D01*
X117928571Y-98957142D01*
X118271429Y-98614285D01*
X118271429Y-98985714D01*
X117671429Y-99500000D02*
X117671429Y-99385714D01*
X117700000Y-99328571D01*
X117728571Y-99300000D01*
X117814286Y-99242857D01*
X117928571Y-99214286D01*
X118157143Y-99214286D01*
X118214286Y-99242857D01*
X118242857Y-99271429D01*
X118271429Y-99328571D01*
X118271429Y-99442857D01*
X118242857Y-99500000D01*
X118214286Y-99528571D01*
X118157143Y-99557143D01*
X118014286Y-99557143D01*
X117957143Y-99528571D01*
X117928571Y-99500000D01*
X117900000Y-99442857D01*
X117900000Y-99328571D01*
X117928571Y-99271429D01*
X117957143Y-99242857D01*
X118014286Y-99214286D01*
X117928571Y-100271429D02*
X117871428Y-100271429D01*
X117814285Y-100300000D01*
X117785714Y-100328571D01*
X117757143Y-100385714D01*
X117728571Y-100500000D01*
X117728571Y-100642857D01*
X117757143Y-100757143D01*
X117785714Y-100814286D01*
X117814285Y-100842857D01*
X117871428Y-100871429D01*
X117928571Y-100871429D01*
X117985714Y-100842857D01*
X118014285Y-100814286D01*
X118042857Y-100757143D01*
X118071428Y-100642857D01*
X118071428Y-100500000D01*
X118042857Y-100385714D01*
X118014285Y-100328571D01*
X117985714Y-100300000D01*
X117928571Y-100271429D01*
X117471428Y-100814286D02*
X117442856Y-100842857D01*
X117471428Y-100871429D01*
X117499999Y-100842857D01*
X117471428Y-100814286D01*
X117471428Y-100871429D01*
X116871428Y-100871429D02*
X117214285Y-100871429D01*
X117042857Y-100871429D02*
X117042857Y-100271429D01*
X117100000Y-100357143D01*
X117157142Y-100414286D01*
X117214285Y-100442857D01*
X116357142Y-100471429D02*
X116357142Y-100871429D01*
X116614285Y-100471429D02*
X116614285Y-100785714D01*
X116585713Y-100842857D01*
X116528571Y-100871429D01*
X116442856Y-100871429D01*
X116385713Y-100842857D01*
X116357142Y-100814286D01*
X119014286Y-87614285D02*
X119042857Y-87585714D01*
X119071429Y-87500000D01*
X119071429Y-87442857D01*
X119042857Y-87357142D01*
X118985714Y-87300000D01*
X118928571Y-87271428D01*
X118814286Y-87242857D01*
X118728571Y-87242857D01*
X118614286Y-87271428D01*
X118557143Y-87300000D01*
X118500000Y-87357142D01*
X118471429Y-87442857D01*
X118471429Y-87500000D01*
X118500000Y-87585714D01*
X118528571Y-87614285D01*
X118528571Y-87842857D02*
X118500000Y-87871428D01*
X118471429Y-87928571D01*
X118471429Y-88071428D01*
X118500000Y-88128571D01*
X118528571Y-88157142D01*
X118585714Y-88185714D01*
X118642857Y-88185714D01*
X118728571Y-88157142D01*
X119071429Y-87814285D01*
X119071429Y-88185714D01*
X118471429Y-88385714D02*
X118471429Y-88785714D01*
X119071429Y-88528571D01*
X118471429Y-89871429D02*
X118471429Y-89928572D01*
X118500000Y-89985715D01*
X118528571Y-90014286D01*
X118585714Y-90042857D01*
X118700000Y-90071429D01*
X118842857Y-90071429D01*
X118957143Y-90042857D01*
X119014286Y-90014286D01*
X119042857Y-89985715D01*
X119071429Y-89928572D01*
X119071429Y-89871429D01*
X119042857Y-89814286D01*
X119014286Y-89785715D01*
X118957143Y-89757143D01*
X118842857Y-89728572D01*
X118700000Y-89728572D01*
X118585714Y-89757143D01*
X118528571Y-89785715D01*
X118500000Y-89814286D01*
X118471429Y-89871429D01*
X119014286Y-90328572D02*
X119042857Y-90357144D01*
X119071429Y-90328572D01*
X119042857Y-90300001D01*
X119014286Y-90328572D01*
X119071429Y-90328572D01*
X119071429Y-90928572D02*
X119071429Y-90585715D01*
X119071429Y-90757143D02*
X118471429Y-90757143D01*
X118557143Y-90700000D01*
X118614286Y-90642858D01*
X118642857Y-90585715D01*
X118671429Y-91442858D02*
X119071429Y-91442858D01*
X118671429Y-91185715D02*
X118985714Y-91185715D01*
X119042857Y-91214287D01*
X119071429Y-91271429D01*
X119071429Y-91357144D01*
X119042857Y-91414287D01*
X119014286Y-91442858D01*
X141214286Y-98414285D02*
X141242857Y-98385714D01*
X141271429Y-98300000D01*
X141271429Y-98242857D01*
X141242857Y-98157142D01*
X141185714Y-98100000D01*
X141128571Y-98071428D01*
X141014286Y-98042857D01*
X140928571Y-98042857D01*
X140814286Y-98071428D01*
X140757143Y-98100000D01*
X140700000Y-98157142D01*
X140671429Y-98242857D01*
X140671429Y-98300000D01*
X140700000Y-98385714D01*
X140728571Y-98414285D01*
X140728571Y-98642857D02*
X140700000Y-98671428D01*
X140671429Y-98728571D01*
X140671429Y-98871428D01*
X140700000Y-98928571D01*
X140728571Y-98957142D01*
X140785714Y-98985714D01*
X140842857Y-98985714D01*
X140928571Y-98957142D01*
X141271429Y-98614285D01*
X141271429Y-98985714D01*
X140928571Y-99328571D02*
X140900000Y-99271429D01*
X140871429Y-99242857D01*
X140814286Y-99214286D01*
X140785714Y-99214286D01*
X140728571Y-99242857D01*
X140700000Y-99271429D01*
X140671429Y-99328571D01*
X140671429Y-99442857D01*
X140700000Y-99500000D01*
X140728571Y-99528571D01*
X140785714Y-99557143D01*
X140814286Y-99557143D01*
X140871429Y-99528571D01*
X140900000Y-99500000D01*
X140928571Y-99442857D01*
X140928571Y-99328571D01*
X140957143Y-99271429D01*
X140985714Y-99242857D01*
X141042857Y-99214286D01*
X141157143Y-99214286D01*
X141214286Y-99242857D01*
X141242857Y-99271429D01*
X141271429Y-99328571D01*
X141271429Y-99442857D01*
X141242857Y-99500000D01*
X141214286Y-99528571D01*
X141157143Y-99557143D01*
X141042857Y-99557143D01*
X140985714Y-99528571D01*
X140957143Y-99500000D01*
X140928571Y-99442857D01*
X141128571Y-100271429D02*
X141071428Y-100271429D01*
X141014285Y-100300000D01*
X140985714Y-100328571D01*
X140957143Y-100385714D01*
X140928571Y-100500000D01*
X140928571Y-100642857D01*
X140957143Y-100757143D01*
X140985714Y-100814286D01*
X141014285Y-100842857D01*
X141071428Y-100871429D01*
X141128571Y-100871429D01*
X141185714Y-100842857D01*
X141214285Y-100814286D01*
X141242857Y-100757143D01*
X141271428Y-100642857D01*
X141271428Y-100500000D01*
X141242857Y-100385714D01*
X141214285Y-100328571D01*
X141185714Y-100300000D01*
X141128571Y-100271429D01*
X140671428Y-100814286D02*
X140642856Y-100842857D01*
X140671428Y-100871429D01*
X140699999Y-100842857D01*
X140671428Y-100814286D01*
X140671428Y-100871429D01*
X140071428Y-100871429D02*
X140414285Y-100871429D01*
X140242857Y-100871429D02*
X140242857Y-100271429D01*
X140300000Y-100357143D01*
X140357142Y-100414286D01*
X140414285Y-100442857D01*
X139557142Y-100471429D02*
X139557142Y-100871429D01*
X139814285Y-100471429D02*
X139814285Y-100785714D01*
X139785713Y-100842857D01*
X139728571Y-100871429D01*
X139642856Y-100871429D01*
X139585713Y-100842857D01*
X139557142Y-100814286D01*
X141614286Y-87214285D02*
X141642857Y-87185714D01*
X141671429Y-87100000D01*
X141671429Y-87042857D01*
X141642857Y-86957142D01*
X141585714Y-86900000D01*
X141528571Y-86871428D01*
X141414286Y-86842857D01*
X141328571Y-86842857D01*
X141214286Y-86871428D01*
X141157143Y-86900000D01*
X141100000Y-86957142D01*
X141071429Y-87042857D01*
X141071429Y-87100000D01*
X141100000Y-87185714D01*
X141128571Y-87214285D01*
X141128571Y-87442857D02*
X141100000Y-87471428D01*
X141071429Y-87528571D01*
X141071429Y-87671428D01*
X141100000Y-87728571D01*
X141128571Y-87757142D01*
X141185714Y-87785714D01*
X141242857Y-87785714D01*
X141328571Y-87757142D01*
X141671429Y-87414285D01*
X141671429Y-87785714D01*
X141671429Y-88071429D02*
X141671429Y-88185714D01*
X141642857Y-88242857D01*
X141614286Y-88271429D01*
X141528571Y-88328571D01*
X141414286Y-88357143D01*
X141185714Y-88357143D01*
X141128571Y-88328571D01*
X141100000Y-88300000D01*
X141071429Y-88242857D01*
X141071429Y-88128571D01*
X141100000Y-88071429D01*
X141128571Y-88042857D01*
X141185714Y-88014286D01*
X141328571Y-88014286D01*
X141385714Y-88042857D01*
X141414286Y-88071429D01*
X141442857Y-88128571D01*
X141442857Y-88242857D01*
X141414286Y-88300000D01*
X141385714Y-88328571D01*
X141328571Y-88357143D01*
X141071429Y-89871429D02*
X141071429Y-89928572D01*
X141100000Y-89985715D01*
X141128571Y-90014286D01*
X141185714Y-90042857D01*
X141300000Y-90071429D01*
X141442857Y-90071429D01*
X141557143Y-90042857D01*
X141614286Y-90014286D01*
X141642857Y-89985715D01*
X141671429Y-89928572D01*
X141671429Y-89871429D01*
X141642857Y-89814286D01*
X141614286Y-89785715D01*
X141557143Y-89757143D01*
X141442857Y-89728572D01*
X141300000Y-89728572D01*
X141185714Y-89757143D01*
X141128571Y-89785715D01*
X141100000Y-89814286D01*
X141071429Y-89871429D01*
X141614286Y-90328572D02*
X141642857Y-90357144D01*
X141671429Y-90328572D01*
X141642857Y-90300001D01*
X141614286Y-90328572D01*
X141671429Y-90328572D01*
X141671429Y-90928572D02*
X141671429Y-90585715D01*
X141671429Y-90757143D02*
X141071429Y-90757143D01*
X141157143Y-90700000D01*
X141214286Y-90642858D01*
X141242857Y-90585715D01*
X141271429Y-91442858D02*
X141671429Y-91442858D01*
X141271429Y-91185715D02*
X141585714Y-91185715D01*
X141642857Y-91214287D01*
X141671429Y-91271429D01*
X141671429Y-91357144D01*
X141642857Y-91414287D01*
X141614286Y-91442858D01*
X115585715Y-98414286D02*
X115614286Y-98442857D01*
X115700000Y-98471429D01*
X115757143Y-98471429D01*
X115842858Y-98442857D01*
X115900000Y-98385714D01*
X115928572Y-98328571D01*
X115957143Y-98214286D01*
X115957143Y-98128571D01*
X115928572Y-98014286D01*
X115900000Y-97957143D01*
X115842858Y-97900000D01*
X115757143Y-97871429D01*
X115700000Y-97871429D01*
X115614286Y-97900000D01*
X115585715Y-97928571D01*
X115385715Y-97871429D02*
X115014286Y-97871429D01*
X115214286Y-98100000D01*
X115128572Y-98100000D01*
X115071429Y-98128571D01*
X115042858Y-98157143D01*
X115014286Y-98214286D01*
X115014286Y-98357143D01*
X115042858Y-98414286D01*
X115071429Y-98442857D01*
X115128572Y-98471429D01*
X115300000Y-98471429D01*
X115357143Y-98442857D01*
X115385715Y-98414286D01*
X114785714Y-97928571D02*
X114757143Y-97900000D01*
X114700000Y-97871429D01*
X114557143Y-97871429D01*
X114500000Y-97900000D01*
X114471429Y-97928571D01*
X114442857Y-97985714D01*
X114442857Y-98042857D01*
X114471429Y-98128571D01*
X114814286Y-98471429D01*
X114442857Y-98471429D01*
X115185714Y-100871429D02*
X115528571Y-100871429D01*
X115357143Y-100871429D02*
X115357143Y-100271429D01*
X115414286Y-100357143D01*
X115471428Y-100414286D01*
X115528571Y-100442857D01*
X114814285Y-100271429D02*
X114757142Y-100271429D01*
X114699999Y-100300000D01*
X114671428Y-100328571D01*
X114642857Y-100385714D01*
X114614285Y-100500000D01*
X114614285Y-100642857D01*
X114642857Y-100757143D01*
X114671428Y-100814286D01*
X114699999Y-100842857D01*
X114757142Y-100871429D01*
X114814285Y-100871429D01*
X114871428Y-100842857D01*
X114899999Y-100814286D01*
X114928571Y-100757143D01*
X114957142Y-100642857D01*
X114957142Y-100500000D01*
X114928571Y-100385714D01*
X114899999Y-100328571D01*
X114871428Y-100300000D01*
X114814285Y-100271429D01*
X114099999Y-100471429D02*
X114099999Y-100871429D01*
X114357142Y-100471429D02*
X114357142Y-100785714D01*
X114328570Y-100842857D01*
X114271428Y-100871429D01*
X114185713Y-100871429D01*
X114128570Y-100842857D01*
X114099999Y-100814286D01*
X116614286Y-90414285D02*
X116642857Y-90385714D01*
X116671429Y-90300000D01*
X116671429Y-90242857D01*
X116642857Y-90157142D01*
X116585714Y-90100000D01*
X116528571Y-90071428D01*
X116414286Y-90042857D01*
X116328571Y-90042857D01*
X116214286Y-90071428D01*
X116157143Y-90100000D01*
X116100000Y-90157142D01*
X116071429Y-90242857D01*
X116071429Y-90300000D01*
X116100000Y-90385714D01*
X116128571Y-90414285D01*
X116071429Y-90614285D02*
X116071429Y-90985714D01*
X116300000Y-90785714D01*
X116300000Y-90871428D01*
X116328571Y-90928571D01*
X116357143Y-90957142D01*
X116414286Y-90985714D01*
X116557143Y-90985714D01*
X116614286Y-90957142D01*
X116642857Y-90928571D01*
X116671429Y-90871428D01*
X116671429Y-90700000D01*
X116642857Y-90642857D01*
X116614286Y-90614285D01*
X116071429Y-91185714D02*
X116071429Y-91557143D01*
X116300000Y-91357143D01*
X116300000Y-91442857D01*
X116328571Y-91500000D01*
X116357143Y-91528571D01*
X116414286Y-91557143D01*
X116557143Y-91557143D01*
X116614286Y-91528571D01*
X116642857Y-91500000D01*
X116671429Y-91442857D01*
X116671429Y-91271429D01*
X116642857Y-91214286D01*
X116614286Y-91185714D01*
X117271429Y-88242857D02*
X117671429Y-88242857D01*
X117042857Y-88100000D02*
X117471429Y-87957143D01*
X117471429Y-88328571D01*
X117271429Y-88814286D02*
X117671429Y-88814286D01*
X117271429Y-88557143D02*
X117585714Y-88557143D01*
X117642857Y-88585715D01*
X117671429Y-88642857D01*
X117671429Y-88728572D01*
X117642857Y-88785715D01*
X117614286Y-88814286D01*
X117071429Y-89042857D02*
X117071429Y-89442857D01*
X117671429Y-89185714D01*
X117042857Y-90100001D02*
X117814286Y-89585715D01*
X117071429Y-90557143D02*
X117071429Y-90442857D01*
X117100000Y-90385714D01*
X117128571Y-90357143D01*
X117214286Y-90300000D01*
X117328571Y-90271429D01*
X117557143Y-90271429D01*
X117614286Y-90300000D01*
X117642857Y-90328572D01*
X117671429Y-90385714D01*
X117671429Y-90500000D01*
X117642857Y-90557143D01*
X117614286Y-90585714D01*
X117557143Y-90614286D01*
X117414286Y-90614286D01*
X117357143Y-90585714D01*
X117328571Y-90557143D01*
X117300000Y-90500000D01*
X117300000Y-90385714D01*
X117328571Y-90328572D01*
X117357143Y-90300000D01*
X117414286Y-90271429D01*
X117071429Y-90814286D02*
X117071429Y-91185715D01*
X117300000Y-90985715D01*
X117300000Y-91071429D01*
X117328571Y-91128572D01*
X117357143Y-91157143D01*
X117414286Y-91185715D01*
X117557143Y-91185715D01*
X117614286Y-91157143D01*
X117642857Y-91128572D01*
X117671429Y-91071429D01*
X117671429Y-90900001D01*
X117642857Y-90842858D01*
X117614286Y-90814286D01*
X117271429Y-91385715D02*
X117671429Y-91528572D01*
X117271429Y-91671430D01*
X138614286Y-98214285D02*
X138642857Y-98185714D01*
X138671429Y-98100000D01*
X138671429Y-98042857D01*
X138642857Y-97957142D01*
X138585714Y-97900000D01*
X138528571Y-97871428D01*
X138414286Y-97842857D01*
X138328571Y-97842857D01*
X138214286Y-97871428D01*
X138157143Y-97900000D01*
X138100000Y-97957142D01*
X138071429Y-98042857D01*
X138071429Y-98100000D01*
X138100000Y-98185714D01*
X138128571Y-98214285D01*
X138071429Y-98414285D02*
X138071429Y-98785714D01*
X138300000Y-98585714D01*
X138300000Y-98671428D01*
X138328571Y-98728571D01*
X138357143Y-98757142D01*
X138414286Y-98785714D01*
X138557143Y-98785714D01*
X138614286Y-98757142D01*
X138642857Y-98728571D01*
X138671429Y-98671428D01*
X138671429Y-98500000D01*
X138642857Y-98442857D01*
X138614286Y-98414285D01*
X138271429Y-99300000D02*
X138671429Y-99300000D01*
X138042857Y-99157143D02*
X138471429Y-99014286D01*
X138471429Y-99385714D01*
X138185714Y-100871429D02*
X138528571Y-100871429D01*
X138357143Y-100871429D02*
X138357143Y-100271429D01*
X138414286Y-100357143D01*
X138471428Y-100414286D01*
X138528571Y-100442857D01*
X137814285Y-100271429D02*
X137757142Y-100271429D01*
X137699999Y-100300000D01*
X137671428Y-100328571D01*
X137642857Y-100385714D01*
X137614285Y-100500000D01*
X137614285Y-100642857D01*
X137642857Y-100757143D01*
X137671428Y-100814286D01*
X137699999Y-100842857D01*
X137757142Y-100871429D01*
X137814285Y-100871429D01*
X137871428Y-100842857D01*
X137899999Y-100814286D01*
X137928571Y-100757143D01*
X137957142Y-100642857D01*
X137957142Y-100500000D01*
X137928571Y-100385714D01*
X137899999Y-100328571D01*
X137871428Y-100300000D01*
X137814285Y-100271429D01*
X137099999Y-100471429D02*
X137099999Y-100871429D01*
X137357142Y-100471429D02*
X137357142Y-100785714D01*
X137328570Y-100842857D01*
X137271428Y-100871429D01*
X137185713Y-100871429D01*
X137128570Y-100842857D01*
X137099999Y-100814286D01*
X139014286Y-90414285D02*
X139042857Y-90385714D01*
X139071429Y-90300000D01*
X139071429Y-90242857D01*
X139042857Y-90157142D01*
X138985714Y-90100000D01*
X138928571Y-90071428D01*
X138814286Y-90042857D01*
X138728571Y-90042857D01*
X138614286Y-90071428D01*
X138557143Y-90100000D01*
X138500000Y-90157142D01*
X138471429Y-90242857D01*
X138471429Y-90300000D01*
X138500000Y-90385714D01*
X138528571Y-90414285D01*
X138471429Y-90614285D02*
X138471429Y-90985714D01*
X138700000Y-90785714D01*
X138700000Y-90871428D01*
X138728571Y-90928571D01*
X138757143Y-90957142D01*
X138814286Y-90985714D01*
X138957143Y-90985714D01*
X139014286Y-90957142D01*
X139042857Y-90928571D01*
X139071429Y-90871428D01*
X139071429Y-90700000D01*
X139042857Y-90642857D01*
X139014286Y-90614285D01*
X138471429Y-91528571D02*
X138471429Y-91242857D01*
X138757143Y-91214286D01*
X138728571Y-91242857D01*
X138700000Y-91300000D01*
X138700000Y-91442857D01*
X138728571Y-91500000D01*
X138757143Y-91528571D01*
X138814286Y-91557143D01*
X138957143Y-91557143D01*
X139014286Y-91528571D01*
X139042857Y-91500000D01*
X139071429Y-91442857D01*
X139071429Y-91300000D01*
X139042857Y-91242857D01*
X139014286Y-91214286D01*
X139671429Y-88042857D02*
X140071429Y-88042857D01*
X139442857Y-87900000D02*
X139871429Y-87757143D01*
X139871429Y-88128571D01*
X139671429Y-88614286D02*
X140071429Y-88614286D01*
X139671429Y-88357143D02*
X139985714Y-88357143D01*
X140042857Y-88385715D01*
X140071429Y-88442857D01*
X140071429Y-88528572D01*
X140042857Y-88585715D01*
X140014286Y-88614286D01*
X139471429Y-88842857D02*
X139471429Y-89242857D01*
X140071429Y-88985714D01*
X139442857Y-89900001D02*
X140214286Y-89385715D01*
X139471429Y-90357143D02*
X139471429Y-90242857D01*
X139500000Y-90185714D01*
X139528571Y-90157143D01*
X139614286Y-90100000D01*
X139728571Y-90071429D01*
X139957143Y-90071429D01*
X140014286Y-90100000D01*
X140042857Y-90128572D01*
X140071429Y-90185714D01*
X140071429Y-90300000D01*
X140042857Y-90357143D01*
X140014286Y-90385714D01*
X139957143Y-90414286D01*
X139814286Y-90414286D01*
X139757143Y-90385714D01*
X139728571Y-90357143D01*
X139700000Y-90300000D01*
X139700000Y-90185714D01*
X139728571Y-90128572D01*
X139757143Y-90100000D01*
X139814286Y-90071429D01*
X139471429Y-90614286D02*
X139471429Y-90985715D01*
X139700000Y-90785715D01*
X139700000Y-90871429D01*
X139728571Y-90928572D01*
X139757143Y-90957143D01*
X139814286Y-90985715D01*
X139957143Y-90985715D01*
X140014286Y-90957143D01*
X140042857Y-90928572D01*
X140071429Y-90871429D01*
X140071429Y-90700001D01*
X140042857Y-90642858D01*
X140014286Y-90614286D01*
X139671429Y-91185715D02*
X140071429Y-91328572D01*
X139671429Y-91471430D01*
X123014286Y-101214285D02*
X123042857Y-101185714D01*
X123071429Y-101100000D01*
X123071429Y-101042857D01*
X123042857Y-100957142D01*
X122985714Y-100900000D01*
X122928571Y-100871428D01*
X122814286Y-100842857D01*
X122728571Y-100842857D01*
X122614286Y-100871428D01*
X122557143Y-100900000D01*
X122500000Y-100957142D01*
X122471429Y-101042857D01*
X122471429Y-101100000D01*
X122500000Y-101185714D01*
X122528571Y-101214285D01*
X122471429Y-101414285D02*
X122471429Y-101785714D01*
X122700000Y-101585714D01*
X122700000Y-101671428D01*
X122728571Y-101728571D01*
X122757143Y-101757142D01*
X122814286Y-101785714D01*
X122957143Y-101785714D01*
X123014286Y-101757142D01*
X123042857Y-101728571D01*
X123071429Y-101671428D01*
X123071429Y-101500000D01*
X123042857Y-101442857D01*
X123014286Y-101414285D01*
X122471429Y-102300000D02*
X122471429Y-102185714D01*
X122500000Y-102128571D01*
X122528571Y-102100000D01*
X122614286Y-102042857D01*
X122728571Y-102014286D01*
X122957143Y-102014286D01*
X123014286Y-102042857D01*
X123042857Y-102071429D01*
X123071429Y-102128571D01*
X123071429Y-102242857D01*
X123042857Y-102300000D01*
X123014286Y-102328571D01*
X122957143Y-102357143D01*
X122814286Y-102357143D01*
X122757143Y-102328571D01*
X122728571Y-102300000D01*
X122700000Y-102242857D01*
X122700000Y-102128571D01*
X122728571Y-102071429D01*
X122757143Y-102042857D01*
X122814286Y-102014286D01*
X123328571Y-99671428D02*
X123300000Y-99699999D01*
X123271429Y-99757142D01*
X123271429Y-99899999D01*
X123300000Y-99957142D01*
X123328571Y-99985713D01*
X123385714Y-100014285D01*
X123442857Y-100014285D01*
X123528571Y-99985713D01*
X123871429Y-99642856D01*
X123871429Y-100014285D01*
X123328571Y-100242857D02*
X123300000Y-100271428D01*
X123271429Y-100328571D01*
X123271429Y-100471428D01*
X123300000Y-100528571D01*
X123328571Y-100557142D01*
X123385714Y-100585714D01*
X123442857Y-100585714D01*
X123528571Y-100557142D01*
X123871429Y-100214285D01*
X123871429Y-100585714D01*
X123271429Y-100957143D02*
X123271429Y-101014286D01*
X123300000Y-101071429D01*
X123328571Y-101100000D01*
X123385714Y-101128571D01*
X123500000Y-101157143D01*
X123642857Y-101157143D01*
X123757143Y-101128571D01*
X123814286Y-101100000D01*
X123842857Y-101071429D01*
X123871429Y-101014286D01*
X123871429Y-100957143D01*
X123842857Y-100900000D01*
X123814286Y-100871429D01*
X123757143Y-100842857D01*
X123642857Y-100814286D01*
X123500000Y-100814286D01*
X123385714Y-100842857D01*
X123328571Y-100871429D01*
X123300000Y-100900000D01*
X123271429Y-100957143D01*
X123471429Y-101414286D02*
X123871429Y-101414286D01*
X123528571Y-101414286D02*
X123500000Y-101442858D01*
X123471429Y-101500000D01*
X123471429Y-101585715D01*
X123500000Y-101642858D01*
X123557143Y-101671429D01*
X123871429Y-101671429D01*
X123242857Y-102385715D02*
X124014286Y-101871429D01*
X123871429Y-102900000D02*
X123871429Y-102557143D01*
X123871429Y-102728571D02*
X123271429Y-102728571D01*
X123357143Y-102671428D01*
X123414286Y-102614286D01*
X123442857Y-102557143D01*
X123271429Y-103414286D02*
X123271429Y-103300000D01*
X123300000Y-103242857D01*
X123328571Y-103214286D01*
X123414286Y-103157143D01*
X123528571Y-103128572D01*
X123757143Y-103128572D01*
X123814286Y-103157143D01*
X123842857Y-103185715D01*
X123871429Y-103242857D01*
X123871429Y-103357143D01*
X123842857Y-103414286D01*
X123814286Y-103442857D01*
X123757143Y-103471429D01*
X123614286Y-103471429D01*
X123557143Y-103442857D01*
X123528571Y-103414286D01*
X123500000Y-103357143D01*
X123500000Y-103242857D01*
X123528571Y-103185715D01*
X123557143Y-103157143D01*
X123614286Y-103128572D01*
X123471429Y-103671429D02*
X123871429Y-103814286D01*
X123471429Y-103957144D01*
X118214286Y-103414285D02*
X118242857Y-103385714D01*
X118271429Y-103300000D01*
X118271429Y-103242857D01*
X118242857Y-103157142D01*
X118185714Y-103100000D01*
X118128571Y-103071428D01*
X118014286Y-103042857D01*
X117928571Y-103042857D01*
X117814286Y-103071428D01*
X117757143Y-103100000D01*
X117700000Y-103157142D01*
X117671429Y-103242857D01*
X117671429Y-103300000D01*
X117700000Y-103385714D01*
X117728571Y-103414285D01*
X117671429Y-103614285D02*
X117671429Y-103985714D01*
X117900000Y-103785714D01*
X117900000Y-103871428D01*
X117928571Y-103928571D01*
X117957143Y-103957142D01*
X118014286Y-103985714D01*
X118157143Y-103985714D01*
X118214286Y-103957142D01*
X118242857Y-103928571D01*
X118271429Y-103871428D01*
X118271429Y-103700000D01*
X118242857Y-103642857D01*
X118214286Y-103614285D01*
X117671429Y-104185714D02*
X117671429Y-104585714D01*
X118271429Y-104328571D01*
X118700000Y-101871429D02*
X119042857Y-101871429D01*
X118871429Y-101871429D02*
X118871429Y-101271429D01*
X118928572Y-101357143D01*
X118985714Y-101414286D01*
X119042857Y-101442857D01*
X118328571Y-101271429D02*
X118271428Y-101271429D01*
X118214285Y-101300000D01*
X118185714Y-101328571D01*
X118157143Y-101385714D01*
X118128571Y-101500000D01*
X118128571Y-101642857D01*
X118157143Y-101757143D01*
X118185714Y-101814286D01*
X118214285Y-101842857D01*
X118271428Y-101871429D01*
X118328571Y-101871429D01*
X118385714Y-101842857D01*
X118414285Y-101814286D01*
X118442857Y-101757143D01*
X118471428Y-101642857D01*
X118471428Y-101500000D01*
X118442857Y-101385714D01*
X118414285Y-101328571D01*
X118385714Y-101300000D01*
X118328571Y-101271429D01*
X117871428Y-101471429D02*
X117871428Y-101871429D01*
X117871428Y-101528571D02*
X117842856Y-101500000D01*
X117785714Y-101471429D01*
X117699999Y-101471429D01*
X117642856Y-101500000D01*
X117614285Y-101557143D01*
X117614285Y-101871429D01*
X116899999Y-101242857D02*
X117414285Y-102014286D01*
X116414286Y-101271429D02*
X116700000Y-101271429D01*
X116728571Y-101557143D01*
X116700000Y-101528571D01*
X116642857Y-101500000D01*
X116500000Y-101500000D01*
X116442857Y-101528571D01*
X116414286Y-101557143D01*
X116385714Y-101614286D01*
X116385714Y-101757143D01*
X116414286Y-101814286D01*
X116442857Y-101842857D01*
X116500000Y-101871429D01*
X116642857Y-101871429D01*
X116700000Y-101842857D01*
X116728571Y-101814286D01*
X116014285Y-101271429D02*
X115957142Y-101271429D01*
X115899999Y-101300000D01*
X115871428Y-101328571D01*
X115842857Y-101385714D01*
X115814285Y-101500000D01*
X115814285Y-101642857D01*
X115842857Y-101757143D01*
X115871428Y-101814286D01*
X115899999Y-101842857D01*
X115957142Y-101871429D01*
X116014285Y-101871429D01*
X116071428Y-101842857D01*
X116099999Y-101814286D01*
X116128571Y-101757143D01*
X116157142Y-101642857D01*
X116157142Y-101500000D01*
X116128571Y-101385714D01*
X116099999Y-101328571D01*
X116071428Y-101300000D01*
X116014285Y-101271429D01*
X115614285Y-101471429D02*
X115471428Y-101871429D01*
X115328570Y-101471429D01*
X145684286Y-101277785D02*
X145712857Y-101249214D01*
X145741429Y-101163500D01*
X145741429Y-101106357D01*
X145712857Y-101020642D01*
X145655714Y-100963500D01*
X145598571Y-100934928D01*
X145484286Y-100906357D01*
X145398571Y-100906357D01*
X145284286Y-100934928D01*
X145227143Y-100963500D01*
X145170000Y-101020642D01*
X145141429Y-101106357D01*
X145141429Y-101163500D01*
X145170000Y-101249214D01*
X145198571Y-101277785D01*
X145141429Y-101477785D02*
X145141429Y-101849214D01*
X145370000Y-101649214D01*
X145370000Y-101734928D01*
X145398571Y-101792071D01*
X145427143Y-101820642D01*
X145484286Y-101849214D01*
X145627143Y-101849214D01*
X145684286Y-101820642D01*
X145712857Y-101792071D01*
X145741429Y-101734928D01*
X145741429Y-101563500D01*
X145712857Y-101506357D01*
X145684286Y-101477785D01*
X145398571Y-102192071D02*
X145370000Y-102134929D01*
X145341429Y-102106357D01*
X145284286Y-102077786D01*
X145255714Y-102077786D01*
X145198571Y-102106357D01*
X145170000Y-102134929D01*
X145141429Y-102192071D01*
X145141429Y-102306357D01*
X145170000Y-102363500D01*
X145198571Y-102392071D01*
X145255714Y-102420643D01*
X145284286Y-102420643D01*
X145341429Y-102392071D01*
X145370000Y-102363500D01*
X145398571Y-102306357D01*
X145398571Y-102192071D01*
X145427143Y-102134929D01*
X145455714Y-102106357D01*
X145512857Y-102077786D01*
X145627143Y-102077786D01*
X145684286Y-102106357D01*
X145712857Y-102134929D01*
X145741429Y-102192071D01*
X145741429Y-102306357D01*
X145712857Y-102363500D01*
X145684286Y-102392071D01*
X145627143Y-102420643D01*
X145512857Y-102420643D01*
X145455714Y-102392071D01*
X145427143Y-102363500D01*
X145398571Y-102306357D01*
X145928571Y-100271428D02*
X145900000Y-100299999D01*
X145871429Y-100357142D01*
X145871429Y-100499999D01*
X145900000Y-100557142D01*
X145928571Y-100585713D01*
X145985714Y-100614285D01*
X146042857Y-100614285D01*
X146128571Y-100585713D01*
X146471429Y-100242856D01*
X146471429Y-100614285D01*
X145928571Y-100842857D02*
X145900000Y-100871428D01*
X145871429Y-100928571D01*
X145871429Y-101071428D01*
X145900000Y-101128571D01*
X145928571Y-101157142D01*
X145985714Y-101185714D01*
X146042857Y-101185714D01*
X146128571Y-101157142D01*
X146471429Y-100814285D01*
X146471429Y-101185714D01*
X145871429Y-101557143D02*
X145871429Y-101614286D01*
X145900000Y-101671429D01*
X145928571Y-101700000D01*
X145985714Y-101728571D01*
X146100000Y-101757143D01*
X146242857Y-101757143D01*
X146357143Y-101728571D01*
X146414286Y-101700000D01*
X146442857Y-101671429D01*
X146471429Y-101614286D01*
X146471429Y-101557143D01*
X146442857Y-101500000D01*
X146414286Y-101471429D01*
X146357143Y-101442857D01*
X146242857Y-101414286D01*
X146100000Y-101414286D01*
X145985714Y-101442857D01*
X145928571Y-101471429D01*
X145900000Y-101500000D01*
X145871429Y-101557143D01*
X146071429Y-102014286D02*
X146471429Y-102014286D01*
X146128571Y-102014286D02*
X146100000Y-102042858D01*
X146071429Y-102100000D01*
X146071429Y-102185715D01*
X146100000Y-102242858D01*
X146157143Y-102271429D01*
X146471429Y-102271429D01*
X145842857Y-102985715D02*
X146614286Y-102471429D01*
X146471429Y-103500000D02*
X146471429Y-103157143D01*
X146471429Y-103328571D02*
X145871429Y-103328571D01*
X145957143Y-103271428D01*
X146014286Y-103214286D01*
X146042857Y-103157143D01*
X145871429Y-104014286D02*
X145871429Y-103900000D01*
X145900000Y-103842857D01*
X145928571Y-103814286D01*
X146014286Y-103757143D01*
X146128571Y-103728572D01*
X146357143Y-103728572D01*
X146414286Y-103757143D01*
X146442857Y-103785715D01*
X146471429Y-103842857D01*
X146471429Y-103957143D01*
X146442857Y-104014286D01*
X146414286Y-104042857D01*
X146357143Y-104071429D01*
X146214286Y-104071429D01*
X146157143Y-104042857D01*
X146128571Y-104014286D01*
X146100000Y-103957143D01*
X146100000Y-103842857D01*
X146128571Y-103785715D01*
X146157143Y-103757143D01*
X146214286Y-103728572D01*
X146071429Y-104271429D02*
X146471429Y-104414286D01*
X146071429Y-104557144D01*
X140684286Y-103477785D02*
X140712857Y-103449214D01*
X140741429Y-103363500D01*
X140741429Y-103306357D01*
X140712857Y-103220642D01*
X140655714Y-103163500D01*
X140598571Y-103134928D01*
X140484286Y-103106357D01*
X140398571Y-103106357D01*
X140284286Y-103134928D01*
X140227143Y-103163500D01*
X140170000Y-103220642D01*
X140141429Y-103306357D01*
X140141429Y-103363500D01*
X140170000Y-103449214D01*
X140198571Y-103477785D01*
X140141429Y-103677785D02*
X140141429Y-104049214D01*
X140370000Y-103849214D01*
X140370000Y-103934928D01*
X140398571Y-103992071D01*
X140427143Y-104020642D01*
X140484286Y-104049214D01*
X140627143Y-104049214D01*
X140684286Y-104020642D01*
X140712857Y-103992071D01*
X140741429Y-103934928D01*
X140741429Y-103763500D01*
X140712857Y-103706357D01*
X140684286Y-103677785D01*
X140741429Y-104334929D02*
X140741429Y-104449214D01*
X140712857Y-104506357D01*
X140684286Y-104534929D01*
X140598571Y-104592071D01*
X140484286Y-104620643D01*
X140255714Y-104620643D01*
X140198571Y-104592071D01*
X140170000Y-104563500D01*
X140141429Y-104506357D01*
X140141429Y-104392071D01*
X140170000Y-104334929D01*
X140198571Y-104306357D01*
X140255714Y-104277786D01*
X140398571Y-104277786D01*
X140455714Y-104306357D01*
X140484286Y-104334929D01*
X140512857Y-104392071D01*
X140512857Y-104506357D01*
X140484286Y-104563500D01*
X140455714Y-104592071D01*
X140398571Y-104620643D01*
X141300000Y-101871429D02*
X141642857Y-101871429D01*
X141471429Y-101871429D02*
X141471429Y-101271429D01*
X141528572Y-101357143D01*
X141585714Y-101414286D01*
X141642857Y-101442857D01*
X140928571Y-101271429D02*
X140871428Y-101271429D01*
X140814285Y-101300000D01*
X140785714Y-101328571D01*
X140757143Y-101385714D01*
X140728571Y-101500000D01*
X140728571Y-101642857D01*
X140757143Y-101757143D01*
X140785714Y-101814286D01*
X140814285Y-101842857D01*
X140871428Y-101871429D01*
X140928571Y-101871429D01*
X140985714Y-101842857D01*
X141014285Y-101814286D01*
X141042857Y-101757143D01*
X141071428Y-101642857D01*
X141071428Y-101500000D01*
X141042857Y-101385714D01*
X141014285Y-101328571D01*
X140985714Y-101300000D01*
X140928571Y-101271429D01*
X140471428Y-101471429D02*
X140471428Y-101871429D01*
X140471428Y-101528571D02*
X140442856Y-101500000D01*
X140385714Y-101471429D01*
X140299999Y-101471429D01*
X140242856Y-101500000D01*
X140214285Y-101557143D01*
X140214285Y-101871429D01*
X139499999Y-101242857D02*
X140014285Y-102014286D01*
X139014286Y-101271429D02*
X139300000Y-101271429D01*
X139328571Y-101557143D01*
X139300000Y-101528571D01*
X139242857Y-101500000D01*
X139100000Y-101500000D01*
X139042857Y-101528571D01*
X139014286Y-101557143D01*
X138985714Y-101614286D01*
X138985714Y-101757143D01*
X139014286Y-101814286D01*
X139042857Y-101842857D01*
X139100000Y-101871429D01*
X139242857Y-101871429D01*
X139300000Y-101842857D01*
X139328571Y-101814286D01*
X138614285Y-101271429D02*
X138557142Y-101271429D01*
X138499999Y-101300000D01*
X138471428Y-101328571D01*
X138442857Y-101385714D01*
X138414285Y-101500000D01*
X138414285Y-101642857D01*
X138442857Y-101757143D01*
X138471428Y-101814286D01*
X138499999Y-101842857D01*
X138557142Y-101871429D01*
X138614285Y-101871429D01*
X138671428Y-101842857D01*
X138699999Y-101814286D01*
X138728571Y-101757143D01*
X138757142Y-101642857D01*
X138757142Y-101500000D01*
X138728571Y-101385714D01*
X138699999Y-101328571D01*
X138671428Y-101300000D01*
X138614285Y-101271429D01*
X138214285Y-101471429D02*
X138071428Y-101871429D01*
X137928570Y-101471429D01*
X111814286Y-92814285D02*
X111842857Y-92785714D01*
X111871429Y-92700000D01*
X111871429Y-92642857D01*
X111842857Y-92557142D01*
X111785714Y-92500000D01*
X111728571Y-92471428D01*
X111614286Y-92442857D01*
X111528571Y-92442857D01*
X111414286Y-92471428D01*
X111357143Y-92500000D01*
X111300000Y-92557142D01*
X111271429Y-92642857D01*
X111271429Y-92700000D01*
X111300000Y-92785714D01*
X111328571Y-92814285D01*
X111471429Y-93328571D02*
X111871429Y-93328571D01*
X111242857Y-93185714D02*
X111671429Y-93042857D01*
X111671429Y-93414285D01*
X111271429Y-93757143D02*
X111271429Y-93814286D01*
X111300000Y-93871429D01*
X111328571Y-93900000D01*
X111385714Y-93928571D01*
X111500000Y-93957143D01*
X111642857Y-93957143D01*
X111757143Y-93928571D01*
X111814286Y-93900000D01*
X111842857Y-93871429D01*
X111871429Y-93814286D01*
X111871429Y-93757143D01*
X111842857Y-93700000D01*
X111814286Y-93671429D01*
X111757143Y-93642857D01*
X111642857Y-93614286D01*
X111500000Y-93614286D01*
X111385714Y-93642857D01*
X111328571Y-93671429D01*
X111300000Y-93700000D01*
X111271429Y-93757143D01*
X112871429Y-87357143D02*
X112871429Y-87414286D01*
X112900000Y-87471429D01*
X112928571Y-87500000D01*
X112985714Y-87528571D01*
X113100000Y-87557143D01*
X113242857Y-87557143D01*
X113357143Y-87528571D01*
X113414286Y-87500000D01*
X113442857Y-87471429D01*
X113471429Y-87414286D01*
X113471429Y-87357143D01*
X113442857Y-87300000D01*
X113414286Y-87271429D01*
X113357143Y-87242857D01*
X113242857Y-87214286D01*
X113100000Y-87214286D01*
X112985714Y-87242857D01*
X112928571Y-87271429D01*
X112900000Y-87300000D01*
X112871429Y-87357143D01*
X113414286Y-87814286D02*
X113442857Y-87842858D01*
X113471429Y-87814286D01*
X113442857Y-87785715D01*
X113414286Y-87814286D01*
X113471429Y-87814286D01*
X113471429Y-88414286D02*
X113471429Y-88071429D01*
X113471429Y-88242857D02*
X112871429Y-88242857D01*
X112957143Y-88185714D01*
X113014286Y-88128572D01*
X113042857Y-88071429D01*
X113071429Y-88928572D02*
X113471429Y-88928572D01*
X113071429Y-88671429D02*
X113385714Y-88671429D01*
X113442857Y-88700001D01*
X113471429Y-88757143D01*
X113471429Y-88842858D01*
X113442857Y-88900001D01*
X113414286Y-88928572D01*
X112842857Y-89642858D02*
X113614286Y-89128572D01*
X112871429Y-90128571D02*
X112871429Y-89842857D01*
X113157143Y-89814286D01*
X113128571Y-89842857D01*
X113100000Y-89900000D01*
X113100000Y-90042857D01*
X113128571Y-90100000D01*
X113157143Y-90128571D01*
X113214286Y-90157143D01*
X113357143Y-90157143D01*
X113414286Y-90128571D01*
X113442857Y-90100000D01*
X113471429Y-90042857D01*
X113471429Y-89900000D01*
X113442857Y-89842857D01*
X113414286Y-89814286D01*
X112871429Y-90528572D02*
X112871429Y-90585715D01*
X112900000Y-90642858D01*
X112928571Y-90671429D01*
X112985714Y-90700000D01*
X113100000Y-90728572D01*
X113242857Y-90728572D01*
X113357143Y-90700000D01*
X113414286Y-90671429D01*
X113442857Y-90642858D01*
X113471429Y-90585715D01*
X113471429Y-90528572D01*
X113442857Y-90471429D01*
X113414286Y-90442858D01*
X113357143Y-90414286D01*
X113242857Y-90385715D01*
X113100000Y-90385715D01*
X112985714Y-90414286D01*
X112928571Y-90442858D01*
X112900000Y-90471429D01*
X112871429Y-90528572D01*
X113071429Y-90928572D02*
X113471429Y-91071429D01*
X113071429Y-91214287D01*
X144614286Y-98214285D02*
X144642857Y-98185714D01*
X144671429Y-98100000D01*
X144671429Y-98042857D01*
X144642857Y-97957142D01*
X144585714Y-97900000D01*
X144528571Y-97871428D01*
X144414286Y-97842857D01*
X144328571Y-97842857D01*
X144214286Y-97871428D01*
X144157143Y-97900000D01*
X144100000Y-97957142D01*
X144071429Y-98042857D01*
X144071429Y-98100000D01*
X144100000Y-98185714D01*
X144128571Y-98214285D01*
X144271429Y-98728571D02*
X144671429Y-98728571D01*
X144042857Y-98585714D02*
X144471429Y-98442857D01*
X144471429Y-98814285D01*
X144671429Y-99357143D02*
X144671429Y-99014286D01*
X144671429Y-99185714D02*
X144071429Y-99185714D01*
X144157143Y-99128571D01*
X144214286Y-99071429D01*
X144242857Y-99014286D01*
X145071429Y-95757143D02*
X145071429Y-95814286D01*
X145100000Y-95871429D01*
X145128571Y-95900000D01*
X145185714Y-95928571D01*
X145300000Y-95957143D01*
X145442857Y-95957143D01*
X145557143Y-95928571D01*
X145614286Y-95900000D01*
X145642857Y-95871429D01*
X145671429Y-95814286D01*
X145671429Y-95757143D01*
X145642857Y-95700000D01*
X145614286Y-95671429D01*
X145557143Y-95642857D01*
X145442857Y-95614286D01*
X145300000Y-95614286D01*
X145185714Y-95642857D01*
X145128571Y-95671429D01*
X145100000Y-95700000D01*
X145071429Y-95757143D01*
X145614286Y-96214286D02*
X145642857Y-96242858D01*
X145671429Y-96214286D01*
X145642857Y-96185715D01*
X145614286Y-96214286D01*
X145671429Y-96214286D01*
X145671429Y-96814286D02*
X145671429Y-96471429D01*
X145671429Y-96642857D02*
X145071429Y-96642857D01*
X145157143Y-96585714D01*
X145214286Y-96528572D01*
X145242857Y-96471429D01*
X145271429Y-97328572D02*
X145671429Y-97328572D01*
X145271429Y-97071429D02*
X145585714Y-97071429D01*
X145642857Y-97100001D01*
X145671429Y-97157143D01*
X145671429Y-97242858D01*
X145642857Y-97300001D01*
X145614286Y-97328572D01*
X145042857Y-98042858D02*
X145814286Y-97528572D01*
X145071429Y-98528571D02*
X145071429Y-98242857D01*
X145357143Y-98214286D01*
X145328571Y-98242857D01*
X145300000Y-98300000D01*
X145300000Y-98442857D01*
X145328571Y-98500000D01*
X145357143Y-98528571D01*
X145414286Y-98557143D01*
X145557143Y-98557143D01*
X145614286Y-98528571D01*
X145642857Y-98500000D01*
X145671429Y-98442857D01*
X145671429Y-98300000D01*
X145642857Y-98242857D01*
X145614286Y-98214286D01*
X145071429Y-98928572D02*
X145071429Y-98985715D01*
X145100000Y-99042858D01*
X145128571Y-99071429D01*
X145185714Y-99100000D01*
X145300000Y-99128572D01*
X145442857Y-99128572D01*
X145557143Y-99100000D01*
X145614286Y-99071429D01*
X145642857Y-99042858D01*
X145671429Y-98985715D01*
X145671429Y-98928572D01*
X145642857Y-98871429D01*
X145614286Y-98842858D01*
X145557143Y-98814286D01*
X145442857Y-98785715D01*
X145300000Y-98785715D01*
X145185714Y-98814286D01*
X145128571Y-98842858D01*
X145100000Y-98871429D01*
X145071429Y-98928572D01*
X145271429Y-99328572D02*
X145671429Y-99471429D01*
X145271429Y-99614287D01*
X110614286Y-98214285D02*
X110642857Y-98185714D01*
X110671429Y-98100000D01*
X110671429Y-98042857D01*
X110642857Y-97957142D01*
X110585714Y-97900000D01*
X110528571Y-97871428D01*
X110414286Y-97842857D01*
X110328571Y-97842857D01*
X110214286Y-97871428D01*
X110157143Y-97900000D01*
X110100000Y-97957142D01*
X110071429Y-98042857D01*
X110071429Y-98100000D01*
X110100000Y-98185714D01*
X110128571Y-98214285D01*
X110271429Y-98728571D02*
X110671429Y-98728571D01*
X110042857Y-98585714D02*
X110471429Y-98442857D01*
X110471429Y-98814285D01*
X110128571Y-99014286D02*
X110100000Y-99042857D01*
X110071429Y-99100000D01*
X110071429Y-99242857D01*
X110100000Y-99300000D01*
X110128571Y-99328571D01*
X110185714Y-99357143D01*
X110242857Y-99357143D01*
X110328571Y-99328571D01*
X110671429Y-98985714D01*
X110671429Y-99357143D01*
X111071889Y-96658083D02*
X111071889Y-96715226D01*
X111100460Y-96772369D01*
X111129031Y-96800940D01*
X111186174Y-96829511D01*
X111300460Y-96858083D01*
X111443317Y-96858083D01*
X111557603Y-96829511D01*
X111614746Y-96800940D01*
X111643317Y-96772369D01*
X111671889Y-96715226D01*
X111671889Y-96658083D01*
X111643317Y-96600940D01*
X111614746Y-96572369D01*
X111557603Y-96543797D01*
X111443317Y-96515226D01*
X111300460Y-96515226D01*
X111186174Y-96543797D01*
X111129031Y-96572369D01*
X111100460Y-96600940D01*
X111071889Y-96658083D01*
X111614746Y-97115226D02*
X111643317Y-97143798D01*
X111671889Y-97115226D01*
X111643317Y-97086655D01*
X111614746Y-97115226D01*
X111671889Y-97115226D01*
X111671889Y-97715226D02*
X111671889Y-97372369D01*
X111671889Y-97543797D02*
X111071889Y-97543797D01*
X111157603Y-97486654D01*
X111214746Y-97429512D01*
X111243317Y-97372369D01*
X111271889Y-98229512D02*
X111671889Y-98229512D01*
X111271889Y-97972369D02*
X111586174Y-97972369D01*
X111643317Y-98000941D01*
X111671889Y-98058083D01*
X111671889Y-98143798D01*
X111643317Y-98200941D01*
X111614746Y-98229512D01*
X111043317Y-98943798D02*
X111814746Y-98429512D01*
X111071889Y-99429511D02*
X111071889Y-99143797D01*
X111357603Y-99115226D01*
X111329031Y-99143797D01*
X111300460Y-99200940D01*
X111300460Y-99343797D01*
X111329031Y-99400940D01*
X111357603Y-99429511D01*
X111414746Y-99458083D01*
X111557603Y-99458083D01*
X111614746Y-99429511D01*
X111643317Y-99400940D01*
X111671889Y-99343797D01*
X111671889Y-99200940D01*
X111643317Y-99143797D01*
X111614746Y-99115226D01*
X111071889Y-99829512D02*
X111071889Y-99886655D01*
X111100460Y-99943798D01*
X111129031Y-99972369D01*
X111186174Y-100000940D01*
X111300460Y-100029512D01*
X111443317Y-100029512D01*
X111557603Y-100000940D01*
X111614746Y-99972369D01*
X111643317Y-99943798D01*
X111671889Y-99886655D01*
X111671889Y-99829512D01*
X111643317Y-99772369D01*
X111614746Y-99743798D01*
X111557603Y-99715226D01*
X111443317Y-99686655D01*
X111300460Y-99686655D01*
X111186174Y-99715226D01*
X111129031Y-99743798D01*
X111100460Y-99772369D01*
X111071889Y-99829512D01*
X111271889Y-100229512D02*
X111671889Y-100372369D01*
X111271889Y-100515227D01*
X133614286Y-98214285D02*
X133642857Y-98185714D01*
X133671429Y-98100000D01*
X133671429Y-98042857D01*
X133642857Y-97957142D01*
X133585714Y-97900000D01*
X133528571Y-97871428D01*
X133414286Y-97842857D01*
X133328571Y-97842857D01*
X133214286Y-97871428D01*
X133157143Y-97900000D01*
X133100000Y-97957142D01*
X133071429Y-98042857D01*
X133071429Y-98100000D01*
X133100000Y-98185714D01*
X133128571Y-98214285D01*
X133271429Y-98728571D02*
X133671429Y-98728571D01*
X133042857Y-98585714D02*
X133471429Y-98442857D01*
X133471429Y-98814285D01*
X133071429Y-98985714D02*
X133071429Y-99357143D01*
X133300000Y-99157143D01*
X133300000Y-99242857D01*
X133328571Y-99300000D01*
X133357143Y-99328571D01*
X133414286Y-99357143D01*
X133557143Y-99357143D01*
X133614286Y-99328571D01*
X133642857Y-99300000D01*
X133671429Y-99242857D01*
X133671429Y-99071429D01*
X133642857Y-99014286D01*
X133614286Y-98985714D01*
X134071889Y-96658083D02*
X134071889Y-96715226D01*
X134100460Y-96772369D01*
X134129031Y-96800940D01*
X134186174Y-96829511D01*
X134300460Y-96858083D01*
X134443317Y-96858083D01*
X134557603Y-96829511D01*
X134614746Y-96800940D01*
X134643317Y-96772369D01*
X134671889Y-96715226D01*
X134671889Y-96658083D01*
X134643317Y-96600940D01*
X134614746Y-96572369D01*
X134557603Y-96543797D01*
X134443317Y-96515226D01*
X134300460Y-96515226D01*
X134186174Y-96543797D01*
X134129031Y-96572369D01*
X134100460Y-96600940D01*
X134071889Y-96658083D01*
X134614746Y-97115226D02*
X134643317Y-97143798D01*
X134671889Y-97115226D01*
X134643317Y-97086655D01*
X134614746Y-97115226D01*
X134671889Y-97115226D01*
X134671889Y-97715226D02*
X134671889Y-97372369D01*
X134671889Y-97543797D02*
X134071889Y-97543797D01*
X134157603Y-97486654D01*
X134214746Y-97429512D01*
X134243317Y-97372369D01*
X134271889Y-98229512D02*
X134671889Y-98229512D01*
X134271889Y-97972369D02*
X134586174Y-97972369D01*
X134643317Y-98000941D01*
X134671889Y-98058083D01*
X134671889Y-98143798D01*
X134643317Y-98200941D01*
X134614746Y-98229512D01*
X134043317Y-98943798D02*
X134814746Y-98429512D01*
X134071889Y-99429511D02*
X134071889Y-99143797D01*
X134357603Y-99115226D01*
X134329031Y-99143797D01*
X134300460Y-99200940D01*
X134300460Y-99343797D01*
X134329031Y-99400940D01*
X134357603Y-99429511D01*
X134414746Y-99458083D01*
X134557603Y-99458083D01*
X134614746Y-99429511D01*
X134643317Y-99400940D01*
X134671889Y-99343797D01*
X134671889Y-99200940D01*
X134643317Y-99143797D01*
X134614746Y-99115226D01*
X134071889Y-99829512D02*
X134071889Y-99886655D01*
X134100460Y-99943798D01*
X134129031Y-99972369D01*
X134186174Y-100000940D01*
X134300460Y-100029512D01*
X134443317Y-100029512D01*
X134557603Y-100000940D01*
X134614746Y-99972369D01*
X134643317Y-99943798D01*
X134671889Y-99886655D01*
X134671889Y-99829512D01*
X134643317Y-99772369D01*
X134614746Y-99743798D01*
X134557603Y-99715226D01*
X134443317Y-99686655D01*
X134300460Y-99686655D01*
X134186174Y-99715226D01*
X134129031Y-99743798D01*
X134100460Y-99772369D01*
X134071889Y-99829512D01*
X134271889Y-100229512D02*
X134671889Y-100372369D01*
X134271889Y-100515227D01*
X121585715Y-98814286D02*
X121614286Y-98842857D01*
X121700000Y-98871429D01*
X121757143Y-98871429D01*
X121842858Y-98842857D01*
X121900000Y-98785714D01*
X121928572Y-98728571D01*
X121957143Y-98614286D01*
X121957143Y-98528571D01*
X121928572Y-98414286D01*
X121900000Y-98357143D01*
X121842858Y-98300000D01*
X121757143Y-98271429D01*
X121700000Y-98271429D01*
X121614286Y-98300000D01*
X121585715Y-98328571D01*
X121071429Y-98471429D02*
X121071429Y-98871429D01*
X121214286Y-98242857D02*
X121357143Y-98671429D01*
X120985715Y-98671429D01*
X120500000Y-98471429D02*
X120500000Y-98871429D01*
X120642857Y-98242857D02*
X120785714Y-98671429D01*
X120414286Y-98671429D01*
X124242857Y-97271429D02*
X124185714Y-97271429D01*
X124128571Y-97300000D01*
X124100000Y-97328571D01*
X124071429Y-97385714D01*
X124042857Y-97500000D01*
X124042857Y-97642857D01*
X124071429Y-97757143D01*
X124100000Y-97814286D01*
X124128571Y-97842857D01*
X124185714Y-97871429D01*
X124242857Y-97871429D01*
X124300000Y-97842857D01*
X124328571Y-97814286D01*
X124357143Y-97757143D01*
X124385714Y-97642857D01*
X124385714Y-97500000D01*
X124357143Y-97385714D01*
X124328571Y-97328571D01*
X124300000Y-97300000D01*
X124242857Y-97271429D01*
X123785714Y-97814286D02*
X123757142Y-97842857D01*
X123785714Y-97871429D01*
X123814285Y-97842857D01*
X123785714Y-97814286D01*
X123785714Y-97871429D01*
X123185714Y-97871429D02*
X123528571Y-97871429D01*
X123357143Y-97871429D02*
X123357143Y-97271429D01*
X123414286Y-97357143D01*
X123471428Y-97414286D01*
X123528571Y-97442857D01*
X122671428Y-97471429D02*
X122671428Y-97871429D01*
X122928571Y-97471429D02*
X122928571Y-97785714D01*
X122899999Y-97842857D01*
X122842857Y-97871429D01*
X122757142Y-97871429D01*
X122699999Y-97842857D01*
X122671428Y-97814286D01*
X121957142Y-97242857D02*
X122471428Y-98014286D01*
X121471429Y-97271429D02*
X121757143Y-97271429D01*
X121785714Y-97557143D01*
X121757143Y-97528571D01*
X121700000Y-97500000D01*
X121557143Y-97500000D01*
X121500000Y-97528571D01*
X121471429Y-97557143D01*
X121442857Y-97614286D01*
X121442857Y-97757143D01*
X121471429Y-97814286D01*
X121500000Y-97842857D01*
X121557143Y-97871429D01*
X121700000Y-97871429D01*
X121757143Y-97842857D01*
X121785714Y-97814286D01*
X121071428Y-97271429D02*
X121014285Y-97271429D01*
X120957142Y-97300000D01*
X120928571Y-97328571D01*
X120900000Y-97385714D01*
X120871428Y-97500000D01*
X120871428Y-97642857D01*
X120900000Y-97757143D01*
X120928571Y-97814286D01*
X120957142Y-97842857D01*
X121014285Y-97871429D01*
X121071428Y-97871429D01*
X121128571Y-97842857D01*
X121157142Y-97814286D01*
X121185714Y-97757143D01*
X121214285Y-97642857D01*
X121214285Y-97500000D01*
X121185714Y-97385714D01*
X121157142Y-97328571D01*
X121128571Y-97300000D01*
X121071428Y-97271429D01*
X120671428Y-97471429D02*
X120528571Y-97871429D01*
X120385713Y-97471429D01*
X143214286Y-90414285D02*
X143242857Y-90385714D01*
X143271429Y-90300000D01*
X143271429Y-90242857D01*
X143242857Y-90157142D01*
X143185714Y-90100000D01*
X143128571Y-90071428D01*
X143014286Y-90042857D01*
X142928571Y-90042857D01*
X142814286Y-90071428D01*
X142757143Y-90100000D01*
X142700000Y-90157142D01*
X142671429Y-90242857D01*
X142671429Y-90300000D01*
X142700000Y-90385714D01*
X142728571Y-90414285D01*
X142871429Y-90928571D02*
X143271429Y-90928571D01*
X142642857Y-90785714D02*
X143071429Y-90642857D01*
X143071429Y-91014285D01*
X142671429Y-91528571D02*
X142671429Y-91242857D01*
X142957143Y-91214286D01*
X142928571Y-91242857D01*
X142900000Y-91300000D01*
X142900000Y-91442857D01*
X142928571Y-91500000D01*
X142957143Y-91528571D01*
X143014286Y-91557143D01*
X143157143Y-91557143D01*
X143214286Y-91528571D01*
X143242857Y-91500000D01*
X143271429Y-91442857D01*
X143271429Y-91300000D01*
X143242857Y-91242857D01*
X143214286Y-91214286D01*
X144070969Y-91656203D02*
X144070969Y-91713346D01*
X144099540Y-91770489D01*
X144128111Y-91799060D01*
X144185254Y-91827631D01*
X144299540Y-91856203D01*
X144442397Y-91856203D01*
X144556683Y-91827631D01*
X144613826Y-91799060D01*
X144642397Y-91770489D01*
X144670969Y-91713346D01*
X144670969Y-91656203D01*
X144642397Y-91599060D01*
X144613826Y-91570489D01*
X144556683Y-91541917D01*
X144442397Y-91513346D01*
X144299540Y-91513346D01*
X144185254Y-91541917D01*
X144128111Y-91570489D01*
X144099540Y-91599060D01*
X144070969Y-91656203D01*
X144613826Y-92113346D02*
X144642397Y-92141918D01*
X144670969Y-92113346D01*
X144642397Y-92084775D01*
X144613826Y-92113346D01*
X144670969Y-92113346D01*
X144670969Y-92713346D02*
X144670969Y-92370489D01*
X144670969Y-92541917D02*
X144070969Y-92541917D01*
X144156683Y-92484774D01*
X144213826Y-92427632D01*
X144242397Y-92370489D01*
X144270969Y-93227632D02*
X144670969Y-93227632D01*
X144270969Y-92970489D02*
X144585254Y-92970489D01*
X144642397Y-92999061D01*
X144670969Y-93056203D01*
X144670969Y-93141918D01*
X144642397Y-93199061D01*
X144613826Y-93227632D01*
X144042397Y-93941918D02*
X144813826Y-93427632D01*
X144070969Y-94427631D02*
X144070969Y-94141917D01*
X144356683Y-94113346D01*
X144328111Y-94141917D01*
X144299540Y-94199060D01*
X144299540Y-94341917D01*
X144328111Y-94399060D01*
X144356683Y-94427631D01*
X144413826Y-94456203D01*
X144556683Y-94456203D01*
X144613826Y-94427631D01*
X144642397Y-94399060D01*
X144670969Y-94341917D01*
X144670969Y-94199060D01*
X144642397Y-94141917D01*
X144613826Y-94113346D01*
X144070969Y-94827632D02*
X144070969Y-94884775D01*
X144099540Y-94941918D01*
X144128111Y-94970489D01*
X144185254Y-94999060D01*
X144299540Y-95027632D01*
X144442397Y-95027632D01*
X144556683Y-94999060D01*
X144613826Y-94970489D01*
X144642397Y-94941918D01*
X144670969Y-94884775D01*
X144670969Y-94827632D01*
X144642397Y-94770489D01*
X144613826Y-94741918D01*
X144556683Y-94713346D01*
X144442397Y-94684775D01*
X144299540Y-94684775D01*
X144185254Y-94713346D01*
X144128111Y-94741918D01*
X144099540Y-94770489D01*
X144070969Y-94827632D01*
X144270969Y-95227632D02*
X144670969Y-95370489D01*
X144270969Y-95513347D01*
X120614286Y-90414285D02*
X120642857Y-90385714D01*
X120671429Y-90300000D01*
X120671429Y-90242857D01*
X120642857Y-90157142D01*
X120585714Y-90100000D01*
X120528571Y-90071428D01*
X120414286Y-90042857D01*
X120328571Y-90042857D01*
X120214286Y-90071428D01*
X120157143Y-90100000D01*
X120100000Y-90157142D01*
X120071429Y-90242857D01*
X120071429Y-90300000D01*
X120100000Y-90385714D01*
X120128571Y-90414285D01*
X120271429Y-90928571D02*
X120671429Y-90928571D01*
X120042857Y-90785714D02*
X120471429Y-90642857D01*
X120471429Y-91014285D01*
X120071429Y-91500000D02*
X120071429Y-91385714D01*
X120100000Y-91328571D01*
X120128571Y-91300000D01*
X120214286Y-91242857D01*
X120328571Y-91214286D01*
X120557143Y-91214286D01*
X120614286Y-91242857D01*
X120642857Y-91271429D01*
X120671429Y-91328571D01*
X120671429Y-91442857D01*
X120642857Y-91500000D01*
X120614286Y-91528571D01*
X120557143Y-91557143D01*
X120414286Y-91557143D01*
X120357143Y-91528571D01*
X120328571Y-91500000D01*
X120300000Y-91442857D01*
X120300000Y-91328571D01*
X120328571Y-91271429D01*
X120357143Y-91242857D01*
X120414286Y-91214286D01*
X121470969Y-91656203D02*
X121470969Y-91713346D01*
X121499540Y-91770489D01*
X121528111Y-91799060D01*
X121585254Y-91827631D01*
X121699540Y-91856203D01*
X121842397Y-91856203D01*
X121956683Y-91827631D01*
X122013826Y-91799060D01*
X122042397Y-91770489D01*
X122070969Y-91713346D01*
X122070969Y-91656203D01*
X122042397Y-91599060D01*
X122013826Y-91570489D01*
X121956683Y-91541917D01*
X121842397Y-91513346D01*
X121699540Y-91513346D01*
X121585254Y-91541917D01*
X121528111Y-91570489D01*
X121499540Y-91599060D01*
X121470969Y-91656203D01*
X122013826Y-92113346D02*
X122042397Y-92141918D01*
X122070969Y-92113346D01*
X122042397Y-92084775D01*
X122013826Y-92113346D01*
X122070969Y-92113346D01*
X122070969Y-92713346D02*
X122070969Y-92370489D01*
X122070969Y-92541917D02*
X121470969Y-92541917D01*
X121556683Y-92484774D01*
X121613826Y-92427632D01*
X121642397Y-92370489D01*
X121670969Y-93227632D02*
X122070969Y-93227632D01*
X121670969Y-92970489D02*
X121985254Y-92970489D01*
X122042397Y-92999061D01*
X122070969Y-93056203D01*
X122070969Y-93141918D01*
X122042397Y-93199061D01*
X122013826Y-93227632D01*
X121442397Y-93941918D02*
X122213826Y-93427632D01*
X121470969Y-94427631D02*
X121470969Y-94141917D01*
X121756683Y-94113346D01*
X121728111Y-94141917D01*
X121699540Y-94199060D01*
X121699540Y-94341917D01*
X121728111Y-94399060D01*
X121756683Y-94427631D01*
X121813826Y-94456203D01*
X121956683Y-94456203D01*
X122013826Y-94427631D01*
X122042397Y-94399060D01*
X122070969Y-94341917D01*
X122070969Y-94199060D01*
X122042397Y-94141917D01*
X122013826Y-94113346D01*
X121470969Y-94827632D02*
X121470969Y-94884775D01*
X121499540Y-94941918D01*
X121528111Y-94970489D01*
X121585254Y-94999060D01*
X121699540Y-95027632D01*
X121842397Y-95027632D01*
X121956683Y-94999060D01*
X122013826Y-94970489D01*
X122042397Y-94941918D01*
X122070969Y-94884775D01*
X122070969Y-94827632D01*
X122042397Y-94770489D01*
X122013826Y-94741918D01*
X121956683Y-94713346D01*
X121842397Y-94684775D01*
X121699540Y-94684775D01*
X121585254Y-94713346D01*
X121528111Y-94741918D01*
X121499540Y-94770489D01*
X121470969Y-94827632D01*
X121670969Y-95227632D02*
X122070969Y-95370489D01*
X121670969Y-95513347D01*
X135344286Y-92950785D02*
X135372857Y-92922214D01*
X135401429Y-92836500D01*
X135401429Y-92779357D01*
X135372857Y-92693642D01*
X135315714Y-92636500D01*
X135258571Y-92607928D01*
X135144286Y-92579357D01*
X135058571Y-92579357D01*
X134944286Y-92607928D01*
X134887143Y-92636500D01*
X134830000Y-92693642D01*
X134801429Y-92779357D01*
X134801429Y-92836500D01*
X134830000Y-92922214D01*
X134858571Y-92950785D01*
X135001429Y-93465071D02*
X135401429Y-93465071D01*
X134772857Y-93322214D02*
X135201429Y-93179357D01*
X135201429Y-93550785D01*
X134801429Y-93722214D02*
X134801429Y-94122214D01*
X135401429Y-93865071D01*
X136071429Y-87557143D02*
X136071429Y-87614286D01*
X136100000Y-87671429D01*
X136128571Y-87700000D01*
X136185714Y-87728571D01*
X136300000Y-87757143D01*
X136442857Y-87757143D01*
X136557143Y-87728571D01*
X136614286Y-87700000D01*
X136642857Y-87671429D01*
X136671429Y-87614286D01*
X136671429Y-87557143D01*
X136642857Y-87500000D01*
X136614286Y-87471429D01*
X136557143Y-87442857D01*
X136442857Y-87414286D01*
X136300000Y-87414286D01*
X136185714Y-87442857D01*
X136128571Y-87471429D01*
X136100000Y-87500000D01*
X136071429Y-87557143D01*
X136614286Y-88014286D02*
X136642857Y-88042858D01*
X136671429Y-88014286D01*
X136642857Y-87985715D01*
X136614286Y-88014286D01*
X136671429Y-88014286D01*
X136671429Y-88614286D02*
X136671429Y-88271429D01*
X136671429Y-88442857D02*
X136071429Y-88442857D01*
X136157143Y-88385714D01*
X136214286Y-88328572D01*
X136242857Y-88271429D01*
X136271429Y-89128572D02*
X136671429Y-89128572D01*
X136271429Y-88871429D02*
X136585714Y-88871429D01*
X136642857Y-88900001D01*
X136671429Y-88957143D01*
X136671429Y-89042858D01*
X136642857Y-89100001D01*
X136614286Y-89128572D01*
X136042857Y-89842858D02*
X136814286Y-89328572D01*
X136071429Y-90328571D02*
X136071429Y-90042857D01*
X136357143Y-90014286D01*
X136328571Y-90042857D01*
X136300000Y-90100000D01*
X136300000Y-90242857D01*
X136328571Y-90300000D01*
X136357143Y-90328571D01*
X136414286Y-90357143D01*
X136557143Y-90357143D01*
X136614286Y-90328571D01*
X136642857Y-90300000D01*
X136671429Y-90242857D01*
X136671429Y-90100000D01*
X136642857Y-90042857D01*
X136614286Y-90014286D01*
X136071429Y-90728572D02*
X136071429Y-90785715D01*
X136100000Y-90842858D01*
X136128571Y-90871429D01*
X136185714Y-90900000D01*
X136300000Y-90928572D01*
X136442857Y-90928572D01*
X136557143Y-90900000D01*
X136614286Y-90871429D01*
X136642857Y-90842858D01*
X136671429Y-90785715D01*
X136671429Y-90728572D01*
X136642857Y-90671429D01*
X136614286Y-90642858D01*
X136557143Y-90614286D01*
X136442857Y-90585715D01*
X136300000Y-90585715D01*
X136185714Y-90614286D01*
X136128571Y-90642858D01*
X136100000Y-90671429D01*
X136071429Y-90728572D01*
X136271429Y-91128572D02*
X136671429Y-91271429D01*
X136271429Y-91414287D01*
X122271429Y-106471428D02*
X121671429Y-106471428D01*
X121671429Y-106614285D01*
X121700000Y-106700000D01*
X121757143Y-106757142D01*
X121814286Y-106785714D01*
X121928571Y-106814285D01*
X122014286Y-106814285D01*
X122128571Y-106785714D01*
X122185714Y-106757142D01*
X122242857Y-106700000D01*
X122271429Y-106614285D01*
X122271429Y-106471428D01*
X121728571Y-107042857D02*
X121700000Y-107071428D01*
X121671429Y-107128571D01*
X121671429Y-107271428D01*
X121700000Y-107328571D01*
X121728571Y-107357142D01*
X121785714Y-107385714D01*
X121842857Y-107385714D01*
X121928571Y-107357142D01*
X122271429Y-107014285D01*
X122271429Y-107385714D01*
X121671429Y-107585714D02*
X121671429Y-107957143D01*
X121900000Y-107757143D01*
X121900000Y-107842857D01*
X121928571Y-107900000D01*
X121957143Y-107928571D01*
X122014286Y-107957143D01*
X122157143Y-107957143D01*
X122214286Y-107928571D01*
X122242857Y-107900000D01*
X122271429Y-107842857D01*
X122271429Y-107671429D01*
X122242857Y-107614286D01*
X122214286Y-107585714D01*
X121271429Y-104914285D02*
X121271429Y-104571428D01*
X121271429Y-104742856D02*
X120671429Y-104742856D01*
X120757143Y-104685713D01*
X120814286Y-104628571D01*
X120842857Y-104571428D01*
X121271429Y-105171428D02*
X120671429Y-105171428D01*
X121271429Y-105514285D01*
X120671429Y-105514285D01*
X120871429Y-106057142D02*
X121271429Y-106057142D01*
X120642857Y-105914285D02*
X121071429Y-105771428D01*
X121071429Y-106142856D01*
X121271429Y-106685714D02*
X121271429Y-106342857D01*
X121271429Y-106514285D02*
X120671429Y-106514285D01*
X120757143Y-106457142D01*
X120814286Y-106400000D01*
X120842857Y-106342857D01*
X120871429Y-107200000D02*
X121271429Y-107200000D01*
X120642857Y-107057143D02*
X121071429Y-106914286D01*
X121071429Y-107285714D01*
X120928571Y-107600000D02*
X120900000Y-107542858D01*
X120871429Y-107514286D01*
X120814286Y-107485715D01*
X120785714Y-107485715D01*
X120728571Y-107514286D01*
X120700000Y-107542858D01*
X120671429Y-107600000D01*
X120671429Y-107714286D01*
X120700000Y-107771429D01*
X120728571Y-107800000D01*
X120785714Y-107828572D01*
X120814286Y-107828572D01*
X120871429Y-107800000D01*
X120900000Y-107771429D01*
X120928571Y-107714286D01*
X120928571Y-107600000D01*
X120957143Y-107542858D01*
X120985714Y-107514286D01*
X121042857Y-107485715D01*
X121157143Y-107485715D01*
X121214286Y-107514286D01*
X121242857Y-107542858D01*
X121271429Y-107600000D01*
X121271429Y-107714286D01*
X121242857Y-107771429D01*
X121214286Y-107800000D01*
X121157143Y-107828572D01*
X121042857Y-107828572D01*
X120985714Y-107800000D01*
X120957143Y-107771429D01*
X120928571Y-107714286D01*
X144871429Y-106271428D02*
X144271429Y-106271428D01*
X144271429Y-106414285D01*
X144300000Y-106500000D01*
X144357143Y-106557142D01*
X144414286Y-106585714D01*
X144528571Y-106614285D01*
X144614286Y-106614285D01*
X144728571Y-106585714D01*
X144785714Y-106557142D01*
X144842857Y-106500000D01*
X144871429Y-106414285D01*
X144871429Y-106271428D01*
X144328571Y-106842857D02*
X144300000Y-106871428D01*
X144271429Y-106928571D01*
X144271429Y-107071428D01*
X144300000Y-107128571D01*
X144328571Y-107157142D01*
X144385714Y-107185714D01*
X144442857Y-107185714D01*
X144528571Y-107157142D01*
X144871429Y-106814285D01*
X144871429Y-107185714D01*
X144471429Y-107700000D02*
X144871429Y-107700000D01*
X144242857Y-107557143D02*
X144671429Y-107414286D01*
X144671429Y-107785714D01*
X144071429Y-104914285D02*
X144071429Y-104571428D01*
X144071429Y-104742856D02*
X143471429Y-104742856D01*
X143557143Y-104685713D01*
X143614286Y-104628571D01*
X143642857Y-104571428D01*
X144071429Y-105171428D02*
X143471429Y-105171428D01*
X144071429Y-105514285D01*
X143471429Y-105514285D01*
X143671429Y-106057142D02*
X144071429Y-106057142D01*
X143442857Y-105914285D02*
X143871429Y-105771428D01*
X143871429Y-106142856D01*
X144071429Y-106685714D02*
X144071429Y-106342857D01*
X144071429Y-106514285D02*
X143471429Y-106514285D01*
X143557143Y-106457142D01*
X143614286Y-106400000D01*
X143642857Y-106342857D01*
X143671429Y-107200000D02*
X144071429Y-107200000D01*
X143442857Y-107057143D02*
X143871429Y-106914286D01*
X143871429Y-107285714D01*
X143728571Y-107600000D02*
X143700000Y-107542858D01*
X143671429Y-107514286D01*
X143614286Y-107485715D01*
X143585714Y-107485715D01*
X143528571Y-107514286D01*
X143500000Y-107542858D01*
X143471429Y-107600000D01*
X143471429Y-107714286D01*
X143500000Y-107771429D01*
X143528571Y-107800000D01*
X143585714Y-107828572D01*
X143614286Y-107828572D01*
X143671429Y-107800000D01*
X143700000Y-107771429D01*
X143728571Y-107714286D01*
X143728571Y-107600000D01*
X143757143Y-107542858D01*
X143785714Y-107514286D01*
X143842857Y-107485715D01*
X143957143Y-107485715D01*
X144014286Y-107514286D01*
X144042857Y-107542858D01*
X144071429Y-107600000D01*
X144071429Y-107714286D01*
X144042857Y-107771429D01*
X144014286Y-107800000D01*
X143957143Y-107828572D01*
X143842857Y-107828572D01*
X143785714Y-107800000D01*
X143757143Y-107771429D01*
X143728571Y-107714286D01*
X115728572Y-109271429D02*
X115728572Y-108671429D01*
X115585715Y-108671429D01*
X115500000Y-108700000D01*
X115442858Y-108757143D01*
X115414286Y-108814286D01*
X115385715Y-108928571D01*
X115385715Y-109014286D01*
X115414286Y-109128571D01*
X115442858Y-109185714D01*
X115500000Y-109242857D01*
X115585715Y-109271429D01*
X115728572Y-109271429D01*
X115157143Y-108728571D02*
X115128572Y-108700000D01*
X115071429Y-108671429D01*
X114928572Y-108671429D01*
X114871429Y-108700000D01*
X114842858Y-108728571D01*
X114814286Y-108785714D01*
X114814286Y-108842857D01*
X114842858Y-108928571D01*
X115185715Y-109271429D01*
X114814286Y-109271429D01*
X114271429Y-108671429D02*
X114557143Y-108671429D01*
X114585714Y-108957143D01*
X114557143Y-108928571D01*
X114500000Y-108900000D01*
X114357143Y-108900000D01*
X114300000Y-108928571D01*
X114271429Y-108957143D01*
X114242857Y-109014286D01*
X114242857Y-109157143D01*
X114271429Y-109214286D01*
X114300000Y-109242857D01*
X114357143Y-109271429D01*
X114500000Y-109271429D01*
X114557143Y-109242857D01*
X114585714Y-109214286D01*
X116685715Y-108371429D02*
X117028572Y-108371429D01*
X116857144Y-108371429D02*
X116857144Y-107771429D01*
X116914287Y-107857143D01*
X116971429Y-107914286D01*
X117028572Y-107942857D01*
X116428572Y-108371429D02*
X116428572Y-107771429D01*
X116085715Y-108371429D01*
X116085715Y-107771429D01*
X115542858Y-107971429D02*
X115542858Y-108371429D01*
X115685715Y-107742857D02*
X115828572Y-108171429D01*
X115457144Y-108171429D01*
X114914286Y-108371429D02*
X115257143Y-108371429D01*
X115085715Y-108371429D02*
X115085715Y-107771429D01*
X115142858Y-107857143D01*
X115200000Y-107914286D01*
X115257143Y-107942857D01*
X114400000Y-107971429D02*
X114400000Y-108371429D01*
X114542857Y-107742857D02*
X114685714Y-108171429D01*
X114314286Y-108171429D01*
X114000000Y-108028571D02*
X114057142Y-108000000D01*
X114085714Y-107971429D01*
X114114285Y-107914286D01*
X114114285Y-107885714D01*
X114085714Y-107828571D01*
X114057142Y-107800000D01*
X114000000Y-107771429D01*
X113885714Y-107771429D01*
X113828571Y-107800000D01*
X113800000Y-107828571D01*
X113771428Y-107885714D01*
X113771428Y-107914286D01*
X113800000Y-107971429D01*
X113828571Y-108000000D01*
X113885714Y-108028571D01*
X114000000Y-108028571D01*
X114057142Y-108057143D01*
X114085714Y-108085714D01*
X114114285Y-108142857D01*
X114114285Y-108257143D01*
X114085714Y-108314286D01*
X114057142Y-108342857D01*
X114000000Y-108371429D01*
X113885714Y-108371429D01*
X113828571Y-108342857D01*
X113800000Y-108314286D01*
X113771428Y-108257143D01*
X113771428Y-108142857D01*
X113800000Y-108085714D01*
X113828571Y-108057143D01*
X113885714Y-108028571D01*
X137728572Y-109471429D02*
X137728572Y-108871429D01*
X137585715Y-108871429D01*
X137500000Y-108900000D01*
X137442858Y-108957143D01*
X137414286Y-109014286D01*
X137385715Y-109128571D01*
X137385715Y-109214286D01*
X137414286Y-109328571D01*
X137442858Y-109385714D01*
X137500000Y-109442857D01*
X137585715Y-109471429D01*
X137728572Y-109471429D01*
X137157143Y-108928571D02*
X137128572Y-108900000D01*
X137071429Y-108871429D01*
X136928572Y-108871429D01*
X136871429Y-108900000D01*
X136842858Y-108928571D01*
X136814286Y-108985714D01*
X136814286Y-109042857D01*
X136842858Y-109128571D01*
X137185715Y-109471429D01*
X136814286Y-109471429D01*
X136300000Y-108871429D02*
X136414286Y-108871429D01*
X136471429Y-108900000D01*
X136500000Y-108928571D01*
X136557143Y-109014286D01*
X136585714Y-109128571D01*
X136585714Y-109357143D01*
X136557143Y-109414286D01*
X136528571Y-109442857D01*
X136471429Y-109471429D01*
X136357143Y-109471429D01*
X136300000Y-109442857D01*
X136271429Y-109414286D01*
X136242857Y-109357143D01*
X136242857Y-109214286D01*
X136271429Y-109157143D01*
X136300000Y-109128571D01*
X136357143Y-109100000D01*
X136471429Y-109100000D01*
X136528571Y-109128571D01*
X136557143Y-109157143D01*
X136585714Y-109214286D01*
X138885715Y-108471429D02*
X139228572Y-108471429D01*
X139057144Y-108471429D02*
X139057144Y-107871429D01*
X139114287Y-107957143D01*
X139171429Y-108014286D01*
X139228572Y-108042857D01*
X138628572Y-108471429D02*
X138628572Y-107871429D01*
X138285715Y-108471429D01*
X138285715Y-107871429D01*
X137742858Y-108071429D02*
X137742858Y-108471429D01*
X137885715Y-107842857D02*
X138028572Y-108271429D01*
X137657144Y-108271429D01*
X137114286Y-108471429D02*
X137457143Y-108471429D01*
X137285715Y-108471429D02*
X137285715Y-107871429D01*
X137342858Y-107957143D01*
X137400000Y-108014286D01*
X137457143Y-108042857D01*
X136600000Y-108071429D02*
X136600000Y-108471429D01*
X136742857Y-107842857D02*
X136885714Y-108271429D01*
X136514286Y-108271429D01*
X136200000Y-108128571D02*
X136257142Y-108100000D01*
X136285714Y-108071429D01*
X136314285Y-108014286D01*
X136314285Y-107985714D01*
X136285714Y-107928571D01*
X136257142Y-107900000D01*
X136200000Y-107871429D01*
X136085714Y-107871429D01*
X136028571Y-107900000D01*
X136000000Y-107928571D01*
X135971428Y-107985714D01*
X135971428Y-108014286D01*
X136000000Y-108071429D01*
X136028571Y-108100000D01*
X136085714Y-108128571D01*
X136200000Y-108128571D01*
X136257142Y-108157143D01*
X136285714Y-108185714D01*
X136314285Y-108242857D01*
X136314285Y-108357143D01*
X136285714Y-108414286D01*
X136257142Y-108442857D01*
X136200000Y-108471429D01*
X136085714Y-108471429D01*
X136028571Y-108442857D01*
X136000000Y-108414286D01*
X135971428Y-108357143D01*
X135971428Y-108242857D01*
X136000000Y-108185714D01*
X136028571Y-108157143D01*
X136085714Y-108128571D01*
X115871429Y-103414285D02*
X115585714Y-103214285D01*
X115871429Y-103071428D02*
X115271429Y-103071428D01*
X115271429Y-103300000D01*
X115300000Y-103357142D01*
X115328571Y-103385714D01*
X115385714Y-103414285D01*
X115471429Y-103414285D01*
X115528571Y-103385714D01*
X115557143Y-103357142D01*
X115585714Y-103300000D01*
X115585714Y-103071428D01*
X115271429Y-103928571D02*
X115271429Y-103814285D01*
X115300000Y-103757142D01*
X115328571Y-103728571D01*
X115414286Y-103671428D01*
X115528571Y-103642857D01*
X115757143Y-103642857D01*
X115814286Y-103671428D01*
X115842857Y-103700000D01*
X115871429Y-103757142D01*
X115871429Y-103871428D01*
X115842857Y-103928571D01*
X115814286Y-103957142D01*
X115757143Y-103985714D01*
X115614286Y-103985714D01*
X115557143Y-103957142D01*
X115528571Y-103928571D01*
X115500000Y-103871428D01*
X115500000Y-103757142D01*
X115528571Y-103700000D01*
X115557143Y-103671428D01*
X115614286Y-103642857D01*
X115528571Y-104328571D02*
X115500000Y-104271429D01*
X115471429Y-104242857D01*
X115414286Y-104214286D01*
X115385714Y-104214286D01*
X115328571Y-104242857D01*
X115300000Y-104271429D01*
X115271429Y-104328571D01*
X115271429Y-104442857D01*
X115300000Y-104500000D01*
X115328571Y-104528571D01*
X115385714Y-104557143D01*
X115414286Y-104557143D01*
X115471429Y-104528571D01*
X115500000Y-104500000D01*
X115528571Y-104442857D01*
X115528571Y-104328571D01*
X115557143Y-104271429D01*
X115585714Y-104242857D01*
X115642857Y-104214286D01*
X115757143Y-104214286D01*
X115814286Y-104242857D01*
X115842857Y-104271429D01*
X115871429Y-104328571D01*
X115871429Y-104442857D01*
X115842857Y-104500000D01*
X115814286Y-104528571D01*
X115757143Y-104557143D01*
X115642857Y-104557143D01*
X115585714Y-104528571D01*
X115557143Y-104500000D01*
X115528571Y-104442857D01*
X114728572Y-101471429D02*
X114357143Y-101471429D01*
X114557143Y-101700000D01*
X114471429Y-101700000D01*
X114414286Y-101728571D01*
X114385715Y-101757143D01*
X114357143Y-101814286D01*
X114357143Y-101957143D01*
X114385715Y-102014286D01*
X114414286Y-102042857D01*
X114471429Y-102071429D01*
X114642857Y-102071429D01*
X114700000Y-102042857D01*
X114728572Y-102014286D01*
X114157143Y-101471429D02*
X113785714Y-101471429D01*
X113985714Y-101700000D01*
X113900000Y-101700000D01*
X113842857Y-101728571D01*
X113814286Y-101757143D01*
X113785714Y-101814286D01*
X113785714Y-101957143D01*
X113814286Y-102014286D01*
X113842857Y-102042857D01*
X113900000Y-102071429D01*
X114071428Y-102071429D01*
X114128571Y-102042857D01*
X114157143Y-102014286D01*
X113528571Y-102071429D02*
X113528571Y-101471429D01*
X113471428Y-101842857D02*
X113299999Y-102071429D01*
X113299999Y-101671429D02*
X113528571Y-101900000D01*
X111071429Y-103414285D02*
X110785714Y-103214285D01*
X111071429Y-103071428D02*
X110471429Y-103071428D01*
X110471429Y-103300000D01*
X110500000Y-103357142D01*
X110528571Y-103385714D01*
X110585714Y-103414285D01*
X110671429Y-103414285D01*
X110728571Y-103385714D01*
X110757143Y-103357142D01*
X110785714Y-103300000D01*
X110785714Y-103071428D01*
X110471429Y-103928571D02*
X110471429Y-103814285D01*
X110500000Y-103757142D01*
X110528571Y-103728571D01*
X110614286Y-103671428D01*
X110728571Y-103642857D01*
X110957143Y-103642857D01*
X111014286Y-103671428D01*
X111042857Y-103700000D01*
X111071429Y-103757142D01*
X111071429Y-103871428D01*
X111042857Y-103928571D01*
X111014286Y-103957142D01*
X110957143Y-103985714D01*
X110814286Y-103985714D01*
X110757143Y-103957142D01*
X110728571Y-103928571D01*
X110700000Y-103871428D01*
X110700000Y-103757142D01*
X110728571Y-103700000D01*
X110757143Y-103671428D01*
X110814286Y-103642857D01*
X111071429Y-104271429D02*
X111071429Y-104385714D01*
X111042857Y-104442857D01*
X111014286Y-104471429D01*
X110928571Y-104528571D01*
X110814286Y-104557143D01*
X110585714Y-104557143D01*
X110528571Y-104528571D01*
X110500000Y-104500000D01*
X110471429Y-104442857D01*
X110471429Y-104328571D01*
X110500000Y-104271429D01*
X110528571Y-104242857D01*
X110585714Y-104214286D01*
X110728571Y-104214286D01*
X110785714Y-104242857D01*
X110814286Y-104271429D01*
X110842857Y-104328571D01*
X110842857Y-104442857D01*
X110814286Y-104500000D01*
X110785714Y-104528571D01*
X110728571Y-104557143D01*
X111471429Y-103385714D02*
X111871429Y-103385714D01*
X111242857Y-103242857D02*
X111671429Y-103100000D01*
X111671429Y-103471428D01*
X111871429Y-103700000D02*
X111271429Y-103700000D01*
X111642857Y-103757143D02*
X111871429Y-103928572D01*
X111471429Y-103928572D02*
X111700000Y-103700000D01*
X111271429Y-104128571D02*
X111271429Y-104528571D01*
X111871429Y-104271428D01*
X137471429Y-103414285D02*
X137185714Y-103214285D01*
X137471429Y-103071428D02*
X136871429Y-103071428D01*
X136871429Y-103300000D01*
X136900000Y-103357142D01*
X136928571Y-103385714D01*
X136985714Y-103414285D01*
X137071429Y-103414285D01*
X137128571Y-103385714D01*
X137157143Y-103357142D01*
X137185714Y-103300000D01*
X137185714Y-103071428D01*
X136871429Y-103614285D02*
X136871429Y-104014285D01*
X137471429Y-103757142D01*
X136871429Y-104357143D02*
X136871429Y-104414286D01*
X136900000Y-104471429D01*
X136928571Y-104500000D01*
X136985714Y-104528571D01*
X137100000Y-104557143D01*
X137242857Y-104557143D01*
X137357143Y-104528571D01*
X137414286Y-104500000D01*
X137442857Y-104471429D01*
X137471429Y-104414286D01*
X137471429Y-104357143D01*
X137442857Y-104300000D01*
X137414286Y-104271429D01*
X137357143Y-104242857D01*
X137242857Y-104214286D01*
X137100000Y-104214286D01*
X136985714Y-104242857D01*
X136928571Y-104271429D01*
X136900000Y-104300000D01*
X136871429Y-104357143D01*
X137528572Y-101471429D02*
X137157143Y-101471429D01*
X137357143Y-101700000D01*
X137271429Y-101700000D01*
X137214286Y-101728571D01*
X137185715Y-101757143D01*
X137157143Y-101814286D01*
X137157143Y-101957143D01*
X137185715Y-102014286D01*
X137214286Y-102042857D01*
X137271429Y-102071429D01*
X137442857Y-102071429D01*
X137500000Y-102042857D01*
X137528572Y-102014286D01*
X136957143Y-101471429D02*
X136585714Y-101471429D01*
X136785714Y-101700000D01*
X136700000Y-101700000D01*
X136642857Y-101728571D01*
X136614286Y-101757143D01*
X136585714Y-101814286D01*
X136585714Y-101957143D01*
X136614286Y-102014286D01*
X136642857Y-102042857D01*
X136700000Y-102071429D01*
X136871428Y-102071429D01*
X136928571Y-102042857D01*
X136957143Y-102014286D01*
X136328571Y-102071429D02*
X136328571Y-101471429D01*
X136271428Y-101842857D02*
X136099999Y-102071429D01*
X136099999Y-101671429D02*
X136328571Y-101900000D01*
X133471429Y-103414285D02*
X133185714Y-103214285D01*
X133471429Y-103071428D02*
X132871429Y-103071428D01*
X132871429Y-103300000D01*
X132900000Y-103357142D01*
X132928571Y-103385714D01*
X132985714Y-103414285D01*
X133071429Y-103414285D01*
X133128571Y-103385714D01*
X133157143Y-103357142D01*
X133185714Y-103300000D01*
X133185714Y-103071428D01*
X132871429Y-103614285D02*
X132871429Y-104014285D01*
X133471429Y-103757142D01*
X133471429Y-104557143D02*
X133471429Y-104214286D01*
X133471429Y-104385714D02*
X132871429Y-104385714D01*
X132957143Y-104328571D01*
X133014286Y-104271429D01*
X133042857Y-104214286D01*
X134071429Y-103385714D02*
X134471429Y-103385714D01*
X133842857Y-103242857D02*
X134271429Y-103100000D01*
X134271429Y-103471428D01*
X134471429Y-103700000D02*
X133871429Y-103700000D01*
X134242857Y-103757143D02*
X134471429Y-103928572D01*
X134071429Y-103928572D02*
X134300000Y-103700000D01*
X133871429Y-104128571D02*
X133871429Y-104528571D01*
X134471429Y-104271428D01*
X144714285Y-37852381D02*
X145285714Y-37852381D01*
X145000000Y-37852381D02*
X145000000Y-36852381D01*
X145095238Y-36995238D01*
X145190476Y-37090476D01*
X145285714Y-37138095D01*
X135714285Y-37852381D02*
X136285714Y-37852381D01*
X136000000Y-37852381D02*
X136000000Y-36852381D01*
X136095238Y-36995238D01*
X136190476Y-37090476D01*
X136285714Y-37138095D01*
X153452381Y-68317715D02*
X153452381Y-67746286D01*
X153452381Y-68032000D02*
X152452381Y-68032000D01*
X152595238Y-67936762D01*
X152690476Y-67841524D01*
X152738095Y-67746286D01*
M02*
